<?xml version="1.0" encoding="UTF-8" standalone="no"?>
<!DOCTYPE svg PUBLIC "-//W3C//DTD SVG 1.1//EN" "http://www.w3.org/Graphics/SVG/1.1/DTD/svg11.dtd">
<svg xmlns="http://www.w3.org/2000/svg" version="1.1" viewBox="0.00 0.00 242.00 208.00">
<g stroke-width="2.60" fill="none" stroke-linecap="butt">
<path stroke="#3e9382" vector-effect="non-scaling-stroke" d="
  M 153.74 90.83
  Q 153.31 90.27 153.20 91.41"
/>
<path stroke="#446e3f" vector-effect="non-scaling-stroke" d="
  M 95.79 150.57
  Q 95.50 148.86 93.67 147.94"
/>
<path stroke="#e67c7f" vector-effect="non-scaling-stroke" d="
  M 133.7819 22.9077
  A 3.57 3.57 0.0 0 0 130.2369 19.3129
  L 117.9972 19.2274
  A 3.57 3.57 0.0 0 0 114.4024 22.7724
  L 114.3581 29.1123
  A 3.57 3.57 0.0 0 0 117.9031 32.7071
  L 130.1428 32.7926
  A 3.57 3.57 0.0 0 0 133.7376 29.2476
  L 133.7819 22.9077"
/>
<path stroke="#8a8a89" vector-effect="non-scaling-stroke" d="
  M 90.49 18.33
  L 94.32 18.30
  Q 95.25 18.29 94.44 18.74
  L 93.99 18.99
  A 0.65 0.64 66.1 0 0 93.70 19.76
  L 96.20 26.99
  Q 96.41 27.58 96.73 27.04
  Q 99.18 22.82 96.76 18.71
  Q 96.46 18.20 96.80 17.72
  L 97.12 17.28
  Q 97.94 16.15 96.68 15.55
  Q 90.86 12.77 86.23 17.15
  A 0.69 0.69 0.0 0 0 86.75 18.34
  L 87.75 18.27
  Q 88.38 18.24 88.00 18.75
  Q 87.92 18.86 87.80 18.92
  Q 87.29 19.19 87.47 19.73
  L 89.68 26.27
  Q 89.85 26.78 90.24 27.15
  Q 91.58 28.41 90.21 29.76
  A 0.67 0.67 0.0 0 0 90.49 30.88
  Q 92.57 31.49 94.63 30.85
  Q 95.17 30.68 95.03 30.14
  Q 94.11 26.63 92.24 23.53
  Q 92.00 23.13 92.00 22.66
  Q 91.96 20.33 90.33 18.73
  Q 89.93 18.33 90.49 18.33"
/>
<path stroke="#8a8a89" vector-effect="non-scaling-stroke" d="
  M 99.63 20.12
  Q 98.69 24.82 97.51 27.20
  Q 95.39 31.48 98.81 28.14
  C 100.35 26.64 102.19 21.65 100.01 19.54
  Q 99.64 19.19 99.54 19.69
  Q 99.50 19.90 99.63 20.12"
/>
<path stroke="#8a8a89" vector-effect="non-scaling-stroke" d="
  M 88.86 29.73
  L 85.11 19.92
  A 0.14 0.14 0.0 0 0 84.93 19.84
  L 84.91 19.85
  A 5.29 2.33 69.1 0 0 84.62 25.62
  L 84.69 25.81
  A 5.29 2.33 69.1 0 0 88.75 29.92
  L 88.78 29.91
  A 0.14 0.14 0.0 0 0 88.86 29.73"
/>
<path stroke="#8a8a89" vector-effect="non-scaling-stroke" d="
  M 91.5025 26.8294
  A 1.13 0.33 91.9 0 0 91.8698 25.7109
  A 1.13 0.33 91.9 0 0 91.5775 24.5706
  A 1.13 0.33 91.9 0 0 91.2102 25.6891
  A 1.13 0.33 91.9 0 0 91.5025 26.8294"
/>
<path stroke="#d27f7f" vector-effect="non-scaling-stroke" d="
  M 123.50 21.96
  A 0.60 0.60 0.0 0 0 122.54 22.43
  L 122.48 29.69
  A 0.60 0.60 0.0 0 0 123.43 30.18
  L 128.39 26.60
  A 0.60 0.60 0.0 0 0 128.40 25.63
  L 123.50 21.96"
/>
<path stroke="#878e98" vector-effect="non-scaling-stroke" d="
  M 167.4212 36.1658
  A 2.63 2.63 0.0 0 0 164.7958 33.5312
  L 151.9358 33.5088
  A 2.63 2.63 0.0 0 0 149.3012 36.1342
  L 149.2788 48.9342
  A 2.63 2.63 0.0 0 0 151.9042 51.5688
  L 164.7642 51.5912
  A 2.63 2.63 0.0 0 0 167.3988 48.9658
  L 167.4212 36.1658"
/>
<path stroke="#8a8a89" vector-effect="non-scaling-stroke" d="
  M 165.45 37.40
  A 1.90 1.90 0.0 0 0 163.55 35.50
  A 1.90 1.90 0.0 0 0 161.65 37.40
  A 1.90 1.90 0.0 0 0 163.55 39.30
  A 1.90 1.90 0.0 0 0 165.45 37.40"
/>
<path stroke="#8a8a89" vector-effect="non-scaling-stroke" d="
  M 161.75 42.53
  A 3.40 3.40 0.0 0 0 158.35 39.13
  A 3.40 3.40 0.0 0 0 154.95 42.53
  A 3.40 3.40 0.0 0 0 158.35 45.93
  A 3.40 3.40 0.0 0 0 161.75 42.53"
/>
<path stroke="#8a8a89" vector-effect="non-scaling-stroke" d="
  M 163.93 41.64
  C 163.95 50.18 152.70 50.39 152.90 41.52
  A 0.43 0.42 2.8 0 0 152.50 41.09
  L 152.11 41.07
  A 0.51 0.50 -87.3 0 0 151.57 41.57
  L 151.48 48.29
  Q 151.46 49.37 152.55 49.38
  L 164.03 49.46
  A 1.23 1.23 0.0 0 0 165.27 48.22
  L 165.22 41.44
  A 0.42 0.42 0.0 0 0 164.78 41.02
  L 164.49 41.04
  Q 163.93 41.07 163.93 41.64"
/>
<path stroke="#94b6d5" vector-effect="non-scaling-stroke" d="
  M 42.54 48.43
  A 0.86 0.86 0.0 0 0 42.62 47.02
  L 40.05 45.02
  A 0.86 0.86 0.0 0 0 39.08 44.96
  L 34.22 47.87
  A 0.86 0.86 0.0 0 0 34.13 49.28
  L 36.79 51.35
  A 0.86 0.86 0.0 0 0 37.77 51.40
  L 42.54 48.43"
/>
<path stroke="#94b6d5" vector-effect="non-scaling-stroke" d="
  M 48.19 44.90
  A 0.64 0.64 0.0 0 0 47.46 44.94
  L 44.50 47.32
  A 0.64 0.64 0.0 0 0 44.59 48.37
  L 49.78 51.32
  A 0.64 0.64 0.0 0 0 50.46 51.28
  L 53.44 49.17
  A 0.64 0.64 0.0 0 0 53.41 48.10
  L 48.19 44.90"
/>
<path stroke="#94b6d5" vector-effect="non-scaling-stroke" d="
  M 43.85 60.08
  Q 43.31 62.36 43.11 60.03
  C 43.03 59.01 43.45 58.07 43.15 57.00
  C 42.55 54.93 39.75 53.79 38.12 52.84
  Q 37.17 52.29 36.31 52.98
  L 34.33 54.58
  Q 33.42 55.32 34.45 55.88
  Q 37.80 57.71 38.30 59.29
  Q 38.45 59.76 38.79 60.11
  Q 43.88 65.31 48.66 60.05
  Q 49.01 59.67 49.48 58.64
  C 50.08 57.35 51.59 56.61 53.00 55.93
  Q 53.94 55.48 53.14 54.80
  L 51.00 52.99
  A 1.49 1.48 49.8 0 0 49.28 52.84
  L 44.90 55.44
  A 2.59 2.59 0.0 0 0 43.75 58.46
  Q 44.03 59.35 43.85 60.08"
/>
<path stroke="#8f93a4" vector-effect="non-scaling-stroke" d="
  M 86.96 48.72
  C 86.61 47.52 87.15 46.60 88.43 46.49
  Q 89.18 46.43 89.71 46.42
  A 1.36 1.36 0.0 0 0 90.96 44.56
  Q 90.35 43.00 89.10 43.00
  C 85.64 42.98 83.59 42.58 82.84 46.64
  Q 82.68 47.49 82.35 48.36
  A 1.26 1.24 84.9 0 1 81.85 48.97
  L 80.51 49.83
  A 1.59 1.59 0.0 0 0 81.38 52.75
  Q 81.77 52.74 82.13 52.87
  Q 82.56 53.03 82.56 53.49
  L 82.53 63.46
  Q 82.53 64.90 83.96 64.94
  L 85.42 64.98
  Q 86.85 65.02 86.86 63.58
  L 86.91 53.49
  Q 86.92 52.88 87.52 52.77
  Q 88.09 52.67 88.62 52.88
  A 0.68 0.67 -60.8 0 0 89.40 52.65
  Q 90.34 51.35 89.85 49.79
  Q 89.67 49.22 89.07 49.22
  L 87.62 49.21
  Q 87.11 49.21 86.96 48.72"
/>
<path stroke="#8a8a89" vector-effect="non-scaling-stroke" d="
  M 216.32 63.34
  A 3.42 3.42 0.0 0 0 212.90 59.92
  A 3.42 3.42 0.0 0 0 209.48 63.34
  A 3.42 3.42 0.0 0 0 212.90 66.76
  A 3.42 3.42 0.0 0 0 216.32 63.34"
/>
<path stroke="#8a8a89" vector-effect="non-scaling-stroke" d="
  M 208.06 64.24
  A 3.03 3.03 0.0 0 0 205.03 61.21
  A 3.03 3.03 0.0 0 0 202.00 64.24
  A 3.03 3.03 0.0 0 0 205.03 67.27
  A 3.03 3.03 0.0 0 0 208.06 64.24"
/>
<path stroke="#8a8a89" vector-effect="non-scaling-stroke" d="
  M 200.65 65.17
  A 2.78 2.78 0.0 0 0 197.87 62.39
  A 2.78 2.78 0.0 0 0 195.09 65.17
  A 2.78 2.78 0.0 0 0 197.87 67.95
  A 2.78 2.78 0.0 0 0 200.65 65.17"
/>
<path stroke="#8a8a89" vector-effect="non-scaling-stroke" d="
  M 209.74 73.00
  L 216.00 72.92
  A 0.84 0.84 0.0 0 0 216.83 72.06
  L 216.82 71.91
  A 4.49 3.83 89.2 0 0 212.93 67.48
  L 212.65 67.48
  A 4.49 3.83 89.2 0 0 208.88 72.03
  L 208.89 72.18
  A 0.84 0.84 0.0 0 0 209.74 73.00"
/>
<path stroke="#8a8a89" vector-effect="non-scaling-stroke" d="
  M 201.06 71.73
  L 200.64 70.26
  A 1.56 1.47 -78.2 0 0 200.20 69.54
  C 197.85 67.42 194.57 69.14 194.86 72.36
  A 0.53 0.53 0.0 0 0 195.34 72.84
  Q 198.19 73.08 201.06 72.90
  Q 201.73 72.86 202.39 72.91
  Q 204.94 73.08 207.47 72.92
  Q 208.04 72.88 208.15 72.31
  C 209.13 67.16 202.24 66.17 201.64 71.69
  Q 201.48 73.20 201.06 71.73"
/>
<path stroke="#9cc399" vector-effect="non-scaling-stroke" d="
  M 127.30 75.87
  L 142.78 75.87
  A 0.24 0.24 0.0 0 0 143.02 75.63
  L 143.02 75.52
  A 7.67 7.42 90.0 0 0 135.60 67.85
  L 134.48 67.85
  A 7.67 7.42 -90.0 0 0 127.06 75.52
  L 127.06 75.63
  A 0.24 0.24 0.0 0 0 127.30 75.87"
/>
<path stroke="#9cc399" vector-effect="non-scaling-stroke" d="
  M 125.7574 78.1843
  A 1.23 1.23 0.0 0 0 124.5125 76.9694
  L 124.3525 76.9713
  A 1.23 1.23 0.0 0 0 123.1376 78.2163
  L 123.2226 85.1757
  A 1.23 1.23 0.0 0 0 124.4675 86.3906
  L 124.6275 86.3887
  A 1.23 1.23 0.0 0 0 125.8424 85.1437
  L 125.7574 78.1843"
/>
<path stroke="#9cc399" vector-effect="non-scaling-stroke" d="
  M 139.45 91.27
  L 141.58 91.13
  A 1.71 1.69 -2.2 0 0 143.17 89.43
  L 143.14 77.49
  Q 143.14 77.10 142.74 77.10
  L 127.47 77.05
  A 0.46 0.46 0.0 0 0 127.01 77.51
  Q 127.03 83.03 127.00 88.68
  C 126.99 91.14 128.21 91.17 130.29 91.31
  Q 131.21 91.37 131.22 92.29
  L 131.24 94.32
  A 1.63 1.60 -77.0 0 0 132.10 95.72
  L 132.50 95.92
  A 0.93 0.93 0.0 0 0 133.86 95.14
  L 134.02 91.92
  Q 134.07 90.91 135.07 91.07
  L 135.42 91.13
  A 0.72 0.71 -87.0 0 1 136.02 91.80
  L 136.16 94.95
  A 1.12 1.12 0.0 0 0 137.44 96.01
  L 138.00 95.93
  A 0.96 0.96 0.0 0 0 138.83 95.00
  L 138.94 91.80
  A 0.56 0.55 -1.2 0 1 139.45 91.27"
/>
<path stroke="#9cc399" vector-effect="non-scaling-stroke" d="
  M 146.9493 78.3419
  A 1.29 1.29 0.0 0 0 145.6706 77.0407
  L 145.5506 77.0397
  A 1.29 1.29 0.0 0 0 144.2494 78.3183
  L 144.1907 85.0381
  A 1.29 1.29 0.0 0 0 145.4694 86.3393
  L 145.5894 86.3403
  A 1.29 1.29 0.0 0 0 146.8906 85.0617
  L 146.9493 78.3419"
/>
<path stroke="#9cc399" vector-effect="non-scaling-stroke" d="
  M 131.65 71.97
  A 0.71 0.71 0.0 0 0 130.94 71.26
  A 0.71 0.71 0.0 0 0 130.23 71.97
  A 0.71 0.71 0.0 0 0 130.94 72.68
  A 0.71 0.71 0.0 0 0 131.65 71.97"
/>
<path stroke="#9cc399" vector-effect="non-scaling-stroke" d="
  M 139.9692 72.1484
  A 0.82 0.56 31.5 0 0 139.5626 71.2425
  A 0.82 0.56 31.5 0 0 138.5708 71.2916
  A 0.82 0.56 31.5 0 0 138.9774 72.1975
  A 0.82 0.56 31.5 0 0 139.9692 72.1484"
/>
<path stroke="#b1d4e1" vector-effect="non-scaling-stroke" d="
  M 18.16 76.79
  Q 17.07 79.99 17.66 83.36
  Q 17.75 83.86 18.03 84.07
  Q 18.45 84.39 19.10 84.17
  A 0.60 0.60 0.0 0 0 19.51 83.59
  L 19.31 76.46
  Q 19.30 76.10 19.43 75.76
  Q 19.63 75.25 19.38 74.74
  A 0.83 0.83 0.0 0 0 18.46 74.30
  L 18.12 74.37
  A 0.48 0.48 0.0 0 0 17.77 75.01
  L 18.14 75.95
  A 1.26 1.23 44.3 0 1 18.16 76.79"
/>
<path stroke="#b1d4e1" vector-effect="non-scaling-stroke" d="
  M 24.60 78.30
  L 24.99 78.34
  A 1.18 1.17 -87.6 0 1 26.05 79.50
  L 26.10 83.75
  A 0.72 0.71 -86.8 0 0 26.72 84.45
  Q 27.61 84.57 27.81 83.51
  Q 28.30 80.92 27.52 78.51
  A 2.23 2.23 0.0 0 0 24.71 77.07
  Q 23.41 77.50 22.13 77.02
  A 0.60 0.60 0.0 0 0 21.32 77.60
  L 21.43 83.31
  Q 21.45 84.18 22.30 84.34
  L 22.70 84.42
  A 0.38 0.38 0.0 0 0 23.15 84.06
  L 23.31 79.43
  A 1.18 1.17 3.7 0 1 24.60 78.30"
/>
<path stroke="#a0cfe8" vector-effect="non-scaling-stroke" d="
  M 175.0057 80.6596
  A 1.69 1.69 0.0 0 0 173.2864 78.9994
  L 169.7070 79.0619
  A 1.69 1.69 0.0 0 0 168.0467 80.7811
  L 168.1343 85.8004
  A 1.69 1.69 0.0 0 0 169.8536 87.4606
  L 173.4330 87.3981
  A 1.69 1.69 0.0 0 0 175.0933 85.6789
  L 175.0057 80.6596"
/>
<path stroke="#a0cfe8" vector-effect="non-scaling-stroke" d="
  M 176.43 83.22
  C 175.37 85.57 177.64 88.34 180.18 87.62
  C 183.45 86.68 181.59 81.59 180.10 79.61
  Q 179.77 79.17 179.23 79.15
  L 178.24 79.12
  Q 177.77 79.10 177.70 79.57
  Q 177.52 80.82 176.43 83.22"
/>
<path stroke="#a890ac" vector-effect="non-scaling-stroke" d="
  M 74.45 85.89
  C 79.22 85.72 82.95 89.21 84.13 93.75
  A 0.71 0.71 0.0 0 0 84.88 94.28
  L 85.22 94.25
  Q 86.42 94.14 86.09 92.98
  Q 83.59 84.27 74.52 83.68
  A 0.61 0.60 -86.2 0 0 73.88 84.25
  L 73.82 85.24
  Q 73.78 85.91 74.45 85.89"
/>
<path stroke="#a890ac" vector-effect="non-scaling-stroke" d="
  M 76.68 102.55
  Q 70.69 100.24 67.56 94.66
  A 0.91 0.90 57.6 0 1 67.82 93.48
  C 70.91 91.26 68.65 87.89 67.56 85.37
  A 2.44 2.43 65.5 0 0 64.28 84.14
  C 59.74 86.28 60.10 91.70 62.45 95.55
  Q 67.34 103.56 75.04 107.18
  C 79.60 109.32 85.29 109.65 87.09 103.83
  A 1.75 1.75 0.0 0 0 86.17 101.73
  L 81.64 99.59
  Q 80.39 99.00 79.52 100.07
  L 77.71 102.28
  Q 77.29 102.79 76.68 102.55"
/>
<path stroke="#a890ac" vector-effect="non-scaling-stroke" d="
  M 75.06 88.92
  C 78.96 89.39 79.52 91.37 81.21 94.37
  Q 81.44 94.78 81.91 94.74
  Q 82.22 94.72 82.48 94.56
  Q 82.98 94.27 82.95 93.69
  C 82.71 89.46 78.00 86.72 74.27 86.91
  A 0.47 0.46 76.6 0 0 73.87 87.57
  L 74.20 88.28
  A 1.10 1.10 0.0 0 0 75.06 88.92"
/>
<path stroke="#a890ac" vector-effect="non-scaling-stroke" d="
  M 74.12 90.68
  L 79.36 95.38
  A 0.16 0.16 0.0 0 0 79.58 95.37
  L 79.60 95.35
  A 3.52 2.16 41.9 0 0 78.42 91.40
  L 78.18 91.18
  A 3.52 2.16 41.9 0 0 74.12 90.44
  L 74.11 90.45
  A 0.16 0.16 0.0 0 0 74.12 90.68"
/>
<path stroke="#94b6d5" vector-effect="non-scaling-stroke" d="
  M 173.0086 81.1014
  A 0.75 0.75 0.0 0 0 172.3003 80.3119
  L 170.8025 80.2308
  A 0.75 0.75 0.0 0 0 170.0130 80.9392
  L 169.9914 81.3386
  A 0.75 0.75 0.0 0 0 170.6997 82.1281
  L 172.1975 82.2092
  A 0.75 0.75 0.0 0 0 172.9870 81.5008
  L 173.0086 81.1014"
/>
<path stroke="#94b6d5" vector-effect="non-scaling-stroke" d="
  M 173.4089 84.5334
  A 0.68 0.68 0.0 0 0 172.6920 83.8924
  L 170.5753 84.0107
  A 0.68 0.68 0.0 0 0 169.9343 84.7276
  L 169.9711 85.3866
  A 0.68 0.68 0.0 0 0 170.6880 86.0276
  L 172.8047 85.9093
  A 0.68 0.68 0.0 0 0 173.4457 85.1924
  L 173.4089 84.5334"
/>
<path stroke="#94b6d5" vector-effect="non-scaling-stroke" d="
  M 179.21 84.72
  Q 178.70 84.94 178.51 85.34
  A 0.58 0.57 17.9 0 0 178.93 86.16
  Q 179.64 86.28 180.28 85.98
  Q 180.81 85.73 180.44 85.27
  Q 180.18 84.95 179.78 84.78"
/>
<path stroke="#a0cfe8" vector-effect="non-scaling-stroke" d="
  M 179.78 84.78
  Q 180.10 83.46 179.95 82.96
  Q 179.37 81.08 178.58 82.88
  Q 178.27 83.59 179.21 84.72"
/>
<path stroke="#3687bf" vector-effect="non-scaling-stroke" d="
  M 179.78 84.78
  Q 179.47 84.99 179.21 84.72"
/>
<path stroke="#849ca6" vector-effect="non-scaling-stroke" d="
  M 187.33 111.19
  C 195.13 103.94 206.20 104.52 214.22 111.16
  A 0.53 0.52 -47.4 0 0 214.94 111.12
  L 217.38 108.63
  A 0.50 0.49 43.8 0 0 217.36 107.92
  C 208.19 99.45 194.07 99.47 184.50 107.45
  A 1.28 1.28 0.0 0 0 184.31 109.21
  L 185.73 111.06
  Q 186.46 112.00 187.33 111.19"
/>
<path stroke="#849ca6" vector-effect="non-scaling-stroke" d="
  M 192.03 115.71
  C 197.22 111.65 204.12 111.49 209.18 115.59
  A 1.13 1.13 0.0 0 0 210.70 115.50
  L 212.46 113.71
  Q 213.25 112.90 212.35 112.22
  C 205.42 106.90 195.35 106.63 188.82 112.57
  A 0.81 0.81 0.0 0 0 188.79 113.74
  L 190.65 115.62
  Q 191.30 116.28 192.03 115.71"
/>
<path stroke="#849ca6" vector-effect="non-scaling-stroke" d="
  M 204.60 120.24
  Q 205.37 120.79 206.04 120.12
  L 207.80 118.33
  Q 208.60 117.51 207.64 116.90
  Q 200.65 112.42 193.73 116.95
  A 0.98 0.97 -39.1 0 0 193.57 118.46
  L 195.07 119.95
  Q 195.92 120.78 196.92 120.14
  Q 200.86 117.60 204.60 120.24"
/>
<path stroke="#849ca6" vector-effect="non-scaling-stroke" d="
  M 205.10 125.43
  A 4.43 4.43 0.0 0 0 200.67 121.00
  A 4.43 4.43 0.0 0 0 196.24 125.43
  A 4.43 4.43 0.0 0 0 200.67 129.86
  A 4.43 4.43 0.0 0 0 205.10 125.43"
/>
<path stroke="#8fcc9c" vector-effect="non-scaling-stroke" d="
  M 40.56 119.75
  C 48.29 109.82 35.83 97.42 26.16 105.23
  Q 22.71 108.02 22.31 112.98
  C 22.02 116.54 24.77 118.14 22.64 122.18
  Q 21.58 124.19 23.65 123.24
  C 25.51 122.38 27.20 122.33 29.37 122.93
  Q 36.54 124.91 40.56 119.75"
/>
<path stroke="#959796" vector-effect="non-scaling-stroke" d="
  M 109.4031 109.5834
  A 2.79 1.26 132.0 0 0 112.2064 108.3531
  A 2.79 1.26 132.0 0 0 113.1369 105.4366
  A 2.79 1.26 132.0 0 0 110.3336 106.6669
  A 2.79 1.26 132.0 0 0 109.4031 109.5834"
/>
<path stroke="#959796" vector-effect="non-scaling-stroke" d="
  M 105.56 109.42
  C 99.44 112.55 100.83 120.52 105.87 123.84
  A 1.33 1.30 -36.7 0 0 106.97 123.99
  Q 109.97 123.02 112.98 123.94
  Q 113.53 124.11 114.02 123.82
  Q 116.38 122.41 117.38 119.85
  A 0.95 0.95 0.0 0 0 117.24 118.91
  L 115.46 116.62
  A 2.53 2.52 44.5 0 1 115.43 113.58
  L 116.75 111.79
  Q 117.06 111.37 116.72 110.99
  Q 114.88 108.92 112.72 109.64
  Q 109.13 110.83 106.53 109.43
  Q 106.05 109.17 105.56 109.42"
/>
<path stroke="#8fcc9c" vector-effect="non-scaling-stroke" d="
  M 25.34 119.12
  L 24.96 120.44
  Q 24.76 121.11 25.45 121.03
  Q 26.26 120.95 26.99 120.56
  A 1.12 1.11 -46.5 0 1 27.96 120.53
  C 32.76 122.62 37.77 122.13 40.32 117.38
  C 44.03 110.46 37.55 102.53 30.16 104.79
  C 23.61 106.81 23.30 112.51 25.31 118.06
  Q 25.50 118.58 25.34 119.12"
/>
<path stroke="#878e98" vector-effect="non-scaling-stroke" d="
  M 160.88 112.39
  L 160.73 109.20
  Q 160.71 108.68 160.20 108.80
  Q 157.55 109.47 156.99 112.17
  Q 156.86 112.79 156.32 113.12
  Q 155.41 113.68 155.32 114.72
  A 0.81 0.80 16.5 0 0 155.74 115.49
  C 157.90 116.68 157.09 121.60 157.14 123.74
  C 157.20 126.70 160.43 127.51 162.55 126.77
  Q 163.64 126.39 163.53 125.24
  L 163.48 124.75
  Q 163.36 123.50 162.13 123.74
  Q 160.90 123.98 160.85 122.50
  Q 160.76 119.64 160.78 116.74
  Q 160.79 116.07 161.46 116.01
  L 162.48 115.92
  A 0.79 0.78 8.4 0 0 163.15 115.43
  Q 163.49 114.62 163.22 113.73
  A 0.68 0.68 0.0 0 0 162.71 113.27
  L 161.40 112.99
  Q 160.91 112.89 160.88 112.39"
/>
<path stroke="#8fcc9c" vector-effect="non-scaling-stroke" d="
  M 36.14 115.09
  C 33.69 116.23 31.24 115.08 30.25 112.71
  Q 30.04 112.21 30.27 111.71
  Q 31.09 109.96 29.76 108.53
  Q 29.31 108.04 28.80 108.46
  C 23.51 112.79 36.58 121.82 37.80 116.42
  A 1.18 1.18 0.0 0 0 36.14 115.09"
/>
<path stroke="#8a8a89" vector-effect="non-scaling-stroke" d="
  M 69.98 139.16
  L 68.20 139.93
  A 2.28 2.28 0.0 0 0 67.25 143.33
  C 68.98 145.77 74.28 145.17 75.45 142.73
  C 76.60 140.34 74.54 139.19 73.17 137.76
  A 0.81 0.81 0.0 0 1 73.33 136.52
  Q 75.99 134.86 74.63 131.77
  A 0.59 0.56 48.5 0 1 74.65 131.27
  Q 74.73 131.13 74.78 130.95
  Q 74.90 130.60 74.53 130.53
  C 72.03 130.05 66.82 131.19 67.76 134.49
  Q 68.43 136.83 69.72 137.05
  Q 73.35 137.70 69.98 139.16"
/>
<path stroke="#8a8a89" vector-effect="non-scaling-stroke" d="
  M 79.92 133.49
  L 80.63 133.15
  A 0.44 0.44 0.0 0 0 80.63 132.36
  Q 79.46 131.80 78.76 130.73
  Q 78.61 130.51 78.43 130.70
  L 76.43 132.74
  A 0.17 0.17 0.0 0 0 76.49 133.02
  Q 77.65 133.50 78.18 134.63
  A 0.44 0.44 0.0 0 0 78.96 134.66
  L 79.27 134.09
  Q 79.50 133.69 79.92 133.49"
/>
<path stroke="#731514" vector-effect="non-scaling-stroke" d="
  M 124.93 141.74
  Q 129.29 140.84 133.58 142.03
  A 0.47 0.47 0.0 0 0 134.15 141.71
  L 135.97 135.42
  A 1.49 1.48 -63.1 0 0 135.45 133.82
  C 132.34 131.38 126.56 131.57 125.60 136.27
  Q 125.08 138.77 124.57 141.38
  A 0.31 0.31 0.0 0 0 124.93 141.74"
/>
<path stroke="#386132" vector-effect="non-scaling-stroke" d="
  M 146.27 136.24
  C 143.57 136.42 141.38 137.20 139.03 135.86
  Q 137.65 135.07 137.22 136.59
  L 135.53 142.55
  Q 135.08 144.12 136.60 144.72
  Q 140.32 146.20 143.93 144.53
  Q 145.02 144.02 145.65 141.98
  Q 146.41 139.52 146.97 137.07
  A 0.68 0.68 0.0 0 0 146.27 136.24"
/>
<path stroke="#1f4260" vector-effect="non-scaling-stroke" d="
  M 121.85 150.09
  A 1.26 1.26 0.0 0 0 122.98 151.69
  L 130.15 152.17
  A 1.26 1.26 0.0 0 0 131.46 151.24
  L 133.19 144.73
  A 1.26 1.26 0.0 0 0 131.96 143.14
  L 124.74 143.20
  A 1.26 1.26 0.0 0 0 123.54 144.12
  L 121.85 150.09"
/>
<path stroke="#816429" vector-effect="non-scaling-stroke" d="
  M 134.91 145.44
  Q 134.69 145.33 134.63 145.56
  L 132.67 152.74
  Q 132.38 153.82 133.32 154.43
  Q 136.54 156.53 140.19 155.11
  Q 141.87 154.46 142.37 152.73
  L 143.85 147.57
  Q 144.26 146.17 142.83 146.49
  Q 138.62 147.47 134.91 145.44"
/>
<path stroke="#8a8a89" vector-effect="non-scaling-stroke" d="
  M 72.2764 136.5251
  A 2.73 1.89 72.6 0 0 73.2635 133.3548
  A 2.73 1.89 72.6 0 0 70.6436 131.3149
  A 2.73 1.89 72.6 0 0 69.6565 134.4852
  A 2.73 1.89 72.6 0 0 72.2764 136.5251"
/>
<path stroke="#8a8a89" vector-effect="non-scaling-stroke" d="
  M 74.3793 142.1603
  A 2.93 2.33 4.9 0 0 71.6590 139.5885
  A 2.93 2.33 4.9 0 0 68.5407 141.6597
  A 2.93 2.33 4.9 0 0 71.2610 144.2315
  A 2.93 2.33 4.9 0 0 74.3793 142.1603"
/>
<path stroke="#abc89c" vector-effect="non-scaling-stroke" d="
  M 102.72 141.91
  Q 104.77 139.81 107.74 139.24
  A 1.39 1.38 76.3 0 0 108.80 137.49
  Q 108.27 135.71 106.59 136.37
  A 2.00 1.99 4.6 0 0 105.60 137.21
  Q 103.94 140.10 100.86 141.34
  Q 97.69 142.61 100.74 144.14
  Q 104.20 145.88 106.25 149.20
  A 1.29 1.29 0.0 0 0 108.42 149.24
  Q 109.14 148.19 108.60 147.44
  Q 108.33 147.06 107.30 146.68
  Q 104.45 145.64 102.66 143.45
  A 1.16 1.15 47.4 0 1 102.72 141.91"
/>
<path stroke="#b69dc4" vector-effect="non-scaling-stroke" d="
  M 176.74 145.75
  L 174.32 147.77
  Q 173.80 148.21 173.38 147.68
  L 170.30 143.90
  A 0.42 0.42 0.0 0 1 170.73 143.23
  Q 171.75 143.48 171.94 143.34
  Q 173.74 142.10 171.50 142.03
  L 163.58 141.78
  A 0.53 0.52 -85.2 0 0 163.04 142.24
  L 162.99 142.57
  A 0.31 0.31 0.0 0 0 163.25 142.92
  C 166.69 143.50 168.18 145.96 170.38 149.08
  C 171.56 150.75 172.45 154.06 168.90 153.48
  Q 168.36 153.40 168.26 153.94
  L 168.19 154.32
  A 0.56 0.56 0.0 0 0 168.74 154.99
  L 176.50 154.98
  Q 179.44 154.98 176.95 153.43
  Q 176.90 153.39 176.06 153.61
  A 0.73 0.73 0.0 0 1 175.27 153.31
  C 173.01 149.87 179.47 145.19 182.39 144.90
  A 0.41 0.41 0.0 0 0 182.76 144.45
  L 182.73 144.06
  A 0.57 0.56 87.2 0 0 182.17 143.55
  L 175.44 143.46
  A 0.97 0.97 0.0 0 0 174.52 144.09
  L 174.38 144.46
  A 0.37 0.36 -78.7 0 0 174.71 144.96
  L 176.50 145.03
  Q 177.55 145.07 176.74 145.75"
/>
<path stroke="#b69dc4" vector-effect="non-scaling-stroke" d="
  M 184.08 146.03
  L 182.81 145.88
  A 0.41 0.41 0.0 0 0 182.36 146.24
  L 182.34 146.41
  A 7.26 0.77 -83.6 0 0 182.29 153.71
  L 182.85 153.78
  A 7.26 0.77 -83.6 0 0 184.43 146.65
  L 184.44 146.48
  A 0.41 0.41 0.0 0 0 184.08 146.03"
/>
<path stroke="#a0cfe8" vector-effect="non-scaling-stroke" d="
  M 69.79 173.13
  C 74.50 169.59 71.72 160.63 66.37 158.68
  C 63.02 157.46 56.64 157.34 56.61 162.25
  C 56.58 171.13 60.09 173.60 68.90 173.44
  Q 69.40 173.43 69.79 173.13"
/>
<path stroke="#887d7f" vector-effect="non-scaling-stroke" d="
  M 107.68 167.49
  L 107.67 170.04
  A 0.49 0.48 68.9 0 0 108.48 170.40
  L 109.63 169.35
  A 1.13 1.12 25.9 0 1 110.48 169.06
  Q 114.85 169.45 115.38 165.23
  C 116.22 158.41 106.53 158.32 105.16 163.99
  Q 104.56 166.49 107.30 167.03
  A 0.47 0.46 -84.8 0 1 107.68 167.49"
/>
<path stroke="#94b6d5" vector-effect="non-scaling-stroke" d="
  M 60.85 167.83
  L 60.90 168.82
  A 0.47 0.45 -77.6 0 0 61.12 169.18
  C 63.26 170.48 67.72 170.92 67.88 167.61
  C 68.00 165.21 64.60 165.06 62.98 164.64
  A 0.95 0.95 0.0 0 1 62.88 162.84
  Q 64.87 162.09 66.51 163.54
  A 0.30 0.30 0.0 0 0 66.98 163.44
  L 67.14 163.11
  A 0.49 0.48 -58.0 0 0 67.01 162.51
  C 65.22 161.05 61.67 160.63 60.99 163.41
  C 60.38 165.85 64.24 166.42 65.77 166.98
  A 0.95 0.95 0.0 0 1 65.69 168.78
  Q 63.20 169.44 61.31 167.62
  A 0.27 0.27 0.0 0 0 60.85 167.83"
/>
<path stroke="#887d7f" vector-effect="non-scaling-stroke" d="
  M 110.93 164.00
  Q 110.81 165.08 110.32 166.04
  A 0.96 0.96 0.0 0 0 110.30 166.89
  Q 110.87 168.15 111.90 167.16
  C 117.24 161.99 106.42 158.78 107.00 165.19
  Q 107.17 167.07 108.08 165.41
  Q 108.12 165.33 108.32 164.45
  Q 108.75 162.49 110.37 163.09
  A 0.88 0.86 -77.2 0 1 110.93 164.00"
/>
</g>
<path fill="#d11314" d="
  M 139.0014 32.9945
  A 16.66 16.35 24.9 0 1 117.0061 40.8102
  A 16.66 16.35 24.9 0 1 108.7786 18.9655
  A 16.66 16.35 24.9 0 1 130.7739 11.1498
  A 16.66 16.35 24.9 0 1 139.0014 32.9945
  Z
  M 133.7819 22.9077
  A 3.57 3.57 0.0 0 0 130.2369 19.3129
  L 117.9972 19.2274
  A 3.57 3.57 0.0 0 0 114.4024 22.7724
  L 114.3581 29.1123
  A 3.57 3.57 0.0 0 0 117.9031 32.7071
  L 130.1428 32.7926
  A 3.57 3.57 0.0 0 0 133.7376 29.2476
  L 133.7819 22.9077
  Z"
/>
<path fill="#151614" d="
  M 103.43 22.95
  A 10.95 10.95 0.0 0 1 92.48 33.90
  A 10.95 10.95 0.0 0 1 81.53 22.95
  A 10.95 10.95 0.0 0 1 92.48 12.00
  A 10.95 10.95 0.0 0 1 103.43 22.95
  Z
  M 90.49 18.33
  L 94.32 18.30
  Q 95.25 18.29 94.44 18.74
  L 93.99 18.99
  A 0.65 0.64 66.1 0 0 93.70 19.76
  L 96.20 26.99
  Q 96.41 27.58 96.73 27.04
  Q 99.18 22.82 96.76 18.71
  Q 96.46 18.20 96.80 17.72
  L 97.12 17.28
  Q 97.94 16.15 96.68 15.55
  Q 90.86 12.77 86.23 17.15
  A 0.69 0.69 0.0 0 0 86.75 18.34
  L 87.75 18.27
  Q 88.38 18.24 88.00 18.75
  Q 87.92 18.86 87.80 18.92
  Q 87.29 19.19 87.47 19.73
  L 89.68 26.27
  Q 89.85 26.78 90.24 27.15
  Q 91.58 28.41 90.21 29.76
  A 0.67 0.67 0.0 0 0 90.49 30.88
  Q 92.57 31.49 94.63 30.85
  Q 95.17 30.68 95.03 30.14
  Q 94.11 26.63 92.24 23.53
  Q 92.00 23.13 92.00 22.66
  Q 91.96 20.33 90.33 18.73
  Q 89.93 18.33 90.49 18.33
  Z
  M 99.63 20.12
  Q 98.69 24.82 97.51 27.20
  Q 95.39 31.48 98.81 28.14
  C 100.35 26.64 102.19 21.65 100.01 19.54
  Q 99.64 19.19 99.54 19.69
  Q 99.50 19.90 99.63 20.12
  Z
  M 88.86 29.73
  L 85.11 19.92
  A 0.14 0.14 0.0 0 0 84.93 19.84
  L 84.91 19.85
  A 5.29 2.33 69.1 0 0 84.62 25.62
  L 84.69 25.81
  A 5.29 2.33 69.1 0 0 88.75 29.92
  L 88.78 29.91
  A 0.14 0.14 0.0 0 0 88.86 29.73
  Z"
/>
<circle fill="#d11314" cx="152.99" cy="18.49" r="5.54"/>
<path fill="#fefefe" d="
  M 90.33 18.73
  Q 91.96 20.33 92.00 22.66
  Q 92.00 23.13 92.24 23.53
  Q 94.11 26.63 95.03 30.14
  Q 95.17 30.68 94.63 30.85
  Q 92.57 31.49 90.49 30.88
  A 0.67 0.67 0.0 0 1 90.21 29.76
  Q 91.58 28.41 90.24 27.15
  Q 89.85 26.78 89.68 26.27
  L 87.47 19.73
  Q 87.29 19.19 87.80 18.92
  Q 87.92 18.86 88.00 18.75
  Q 88.38 18.24 87.75 18.27
  L 86.75 18.34
  A 0.69 0.69 0.0 0 1 86.23 17.15
  Q 90.86 12.77 96.68 15.55
  Q 97.94 16.15 97.12 17.28
  L 96.80 17.72
  Q 96.46 18.20 96.76 18.71
  Q 99.18 22.82 96.73 27.04
  Q 96.41 27.58 96.20 26.99
  L 93.70 19.76
  A 0.65 0.64 66.1 0 1 93.99 18.99
  L 94.44 18.74
  Q 95.25 18.29 94.32 18.30
  L 90.49 18.33
  Q 89.93 18.33 90.33 18.73
  Z
  M 91.5025 26.8294
  A 1.13 0.33 91.9 0 0 91.8698 25.7109
  A 1.13 0.33 91.9 0 0 91.5775 24.5706
  A 1.13 0.33 91.9 0 0 91.2102 25.6891
  A 1.13 0.33 91.9 0 0 91.5025 26.8294
  Z"
/>
<circle fill="#151614" cx="71.36" cy="22.35" r="4.88"/>
<path fill="#fefefe" d="
  M 99.63 20.12
  Q 99.50 19.90 99.54 19.69
  Q 99.64 19.19 100.01 19.54
  C 102.19 21.65 100.35 26.64 98.81 28.14
  Q 95.39 31.48 97.51 27.20
  Q 98.69 24.82 99.63 20.12
  Z"
/>
<path fill="#fbe4e9" d="
  M 133.7376 29.2476
  A 3.57 3.57 0.0 0 1 130.1428 32.7926
  L 117.9031 32.7071
  A 3.57 3.57 0.0 0 1 114.3581 29.1123
  L 114.4024 22.7724
  A 3.57 3.57 0.0 0 1 117.9972 19.2274
  L 130.2369 19.3129
  A 3.57 3.57 0.0 0 1 133.7819 22.9077
  L 133.7376 29.2476
  Z
  M 123.50 21.96
  A 0.60 0.60 0.0 0 0 122.54 22.43
  L 122.48 29.69
  A 0.60 0.60 0.0 0 0 123.43 30.18
  L 128.39 26.60
  A 0.60 0.60 0.0 0 0 128.40 25.63
  L 123.50 21.96
  Z"
/>
<path fill="#fefefe" d="
  M 88.86 29.73
  A 0.14 0.14 0.0 0 1 88.78 29.91
  L 88.75 29.92
  A 5.29 2.33 69.1 0 1 84.69 25.81
  L 84.62 25.62
  A 5.29 2.33 69.1 0 1 84.91 19.85
  L 84.93 19.84
  A 0.14 0.14 0.0 0 1 85.11 19.92
  L 88.86 29.73
  Z"
/>
<path fill="#a91a15" d="
  M 123.50 21.96
  L 128.40 25.63
  A 0.60 0.60 0.0 0 1 128.39 26.60
  L 123.43 30.18
  A 0.60 0.60 0.0 0 1 122.48 29.69
  L 122.54 22.43
  A 0.60 0.60 0.0 0 1 123.50 21.96
  Z"
/>
<ellipse fill="#151614" cx="0.00" cy="0.00" transform="translate(91.54,25.70) rotate(91.9)" rx="1.13" ry="0.33"/>
<path fill="#101d32" d="
  M 159.3169 58.9827
  A 16.45 16.26 86.7 0 1 142.1370 43.4960
  A 16.45 16.26 86.7 0 1 157.4231 26.1373
  A 16.45 16.26 86.7 0 1 174.6030 41.6240
  A 16.45 16.26 86.7 0 1 159.3169 58.9827
  Z
  M 167.4212 36.1658
  A 2.63 2.63 0.0 0 0 164.7958 33.5312
  L 151.9358 33.5088
  A 2.63 2.63 0.0 0 0 149.3012 36.1342
  L 149.2788 48.9342
  A 2.63 2.63 0.0 0 0 151.9042 51.5688
  L 164.7642 51.5912
  A 2.63 2.63 0.0 0 0 167.3988 48.9658
  L 167.4212 36.1658
  Z"
/>
<circle fill="#202749" cx="64.90" cy="36.30" r="7.47"/>
<circle fill="#202749" cx="188.94" cy="39.97" r="10.28"/>
<path fill="#fefefe" d="
  M 167.3988 48.9658
  A 2.63 2.63 0.0 0 1 164.7642 51.5912
  L 151.9042 51.5688
  A 2.63 2.63 0.0 0 1 149.2788 48.9342
  L 149.3012 36.1342
  A 2.63 2.63 0.0 0 1 151.9358 33.5088
  L 164.7958 33.5312
  A 2.63 2.63 0.0 0 1 167.4212 36.1658
  L 167.3988 48.9658
  Z
  M 165.45 37.40
  A 1.90 1.90 0.0 0 0 163.55 35.50
  A 1.90 1.90 0.0 0 0 161.65 37.40
  A 1.90 1.90 0.0 0 0 163.55 39.30
  A 1.90 1.90 0.0 0 0 165.45 37.40
  Z
  M 161.75 42.53
  A 3.40 3.40 0.0 0 0 158.35 39.13
  A 3.40 3.40 0.0 0 0 154.95 42.53
  A 3.40 3.40 0.0 0 0 158.35 45.93
  A 3.40 3.40 0.0 0 0 161.75 42.53
  Z
  M 163.93 41.64
  C 163.95 50.18 152.70 50.39 152.90 41.52
  A 0.43 0.42 2.8 0 0 152.50 41.09
  L 152.11 41.07
  A 0.51 0.50 -87.3 0 0 151.57 41.57
  L 151.48 48.29
  Q 151.46 49.37 152.55 49.38
  L 164.03 49.46
  A 1.23 1.23 0.0 0 0 165.27 48.22
  L 165.22 41.44
  A 0.42 0.42 0.0 0 0 164.78 41.02
  L 164.49 41.04
  Q 163.93 41.07 163.93 41.64
  Z"
/>
<circle fill="#151614" cx="163.55" cy="37.40" r="1.90"/>
<path fill="#296eac" d="
  M 59.68 53.95
  A 15.93 15.93 0.0 0 1 43.75 69.88
  A 15.93 15.93 0.0 0 1 27.82 53.95
  A 15.93 15.93 0.0 0 1 43.75 38.02
  A 15.93 15.93 0.0 0 1 59.68 53.95
  Z
  M 42.54 48.43
  A 0.86 0.86 0.0 0 0 42.62 47.02
  L 40.05 45.02
  A 0.86 0.86 0.0 0 0 39.08 44.96
  L 34.22 47.87
  A 0.86 0.86 0.0 0 0 34.13 49.28
  L 36.79 51.35
  A 0.86 0.86 0.0 0 0 37.77 51.40
  L 42.54 48.43
  Z
  M 48.19 44.90
  A 0.64 0.64 0.0 0 0 47.46 44.94
  L 44.50 47.32
  A 0.64 0.64 0.0 0 0 44.59 48.37
  L 49.78 51.32
  A 0.64 0.64 0.0 0 0 50.46 51.28
  L 53.44 49.17
  A 0.64 0.64 0.0 0 0 53.41 48.10
  L 48.19 44.90
  Z
  M 43.85 60.08
  Q 43.31 62.36 43.11 60.03
  C 43.03 59.01 43.45 58.07 43.15 57.00
  C 42.55 54.93 39.75 53.79 38.12 52.84
  Q 37.17 52.29 36.31 52.98
  L 34.33 54.58
  Q 33.42 55.32 34.45 55.88
  Q 37.80 57.71 38.30 59.29
  Q 38.45 59.76 38.79 60.11
  Q 43.88 65.31 48.66 60.05
  Q 49.01 59.67 49.48 58.64
  C 50.08 57.35 51.59 56.61 53.00 55.93
  Q 53.94 55.48 53.14 54.80
  L 51.00 52.99
  A 1.49 1.48 49.8 0 0 49.28 52.84
  L 44.90 55.44
  A 2.59 2.59 0.0 0 0 43.75 58.46
  Q 44.03 59.35 43.85 60.08
  Z"
/>
<path fill="#202749" d="
  M 101.65 53.93
  A 16.05 16.05 0.0 0 1 85.60 69.98
  A 16.05 16.05 0.0 0 1 69.55 53.93
  A 16.05 16.05 0.0 0 1 85.60 37.88
  A 16.05 16.05 0.0 0 1 101.65 53.93
  Z
  M 86.96 48.72
  C 86.61 47.52 87.15 46.60 88.43 46.49
  Q 89.18 46.43 89.71 46.42
  A 1.36 1.36 0.0 0 0 90.96 44.56
  Q 90.35 43.00 89.10 43.00
  C 85.64 42.98 83.59 42.58 82.84 46.64
  Q 82.68 47.49 82.35 48.36
  A 1.26 1.24 84.9 0 1 81.85 48.97
  L 80.51 49.83
  A 1.59 1.59 0.0 0 0 81.38 52.75
  Q 81.77 52.74 82.13 52.87
  Q 82.56 53.03 82.56 53.49
  L 82.53 63.46
  Q 82.53 64.90 83.96 64.94
  L 85.42 64.98
  Q 86.85 65.02 86.86 63.58
  L 86.91 53.49
  Q 86.92 52.88 87.52 52.77
  Q 88.09 52.67 88.62 52.88
  A 0.68 0.67 -60.8 0 0 89.40 52.65
  Q 90.34 51.35 89.85 49.79
  Q 89.67 49.22 89.07 49.22
  L 87.62 49.21
  Q 87.11 49.21 86.96 48.72
  Z"
/>
<circle fill="#151614" cx="158.35" cy="42.53" r="3.40"/>
<path fill="#151614" d="
  M 163.93 41.64
  Q 163.93 41.07 164.49 41.04
  L 164.78 41.02
  A 0.42 0.42 0.0 0 1 165.22 41.44
  L 165.27 48.22
  A 1.23 1.23 0.0 0 1 164.03 49.46
  L 152.55 49.38
  Q 151.46 49.37 151.48 48.29
  L 151.57 41.57
  A 0.51 0.50 -87.3 0 1 152.11 41.07
  L 152.50 41.09
  A 0.43 0.42 2.8 0 1 152.90 41.52
  C 152.70 50.39 163.95 50.18 163.93 41.64
  Z"
/>
<path fill="#fefefe" d="
  M 87.62 49.21
  L 89.07 49.22
  Q 89.67 49.22 89.85 49.79
  Q 90.34 51.35 89.40 52.65
  A 0.68 0.67 -60.8 0 1 88.62 52.88
  Q 88.09 52.67 87.52 52.77
  Q 86.92 52.88 86.91 53.49
  L 86.86 63.58
  Q 86.85 65.02 85.42 64.98
  L 83.96 64.94
  Q 82.53 64.90 82.53 63.46
  L 82.56 53.49
  Q 82.56 53.03 82.13 52.87
  Q 81.77 52.74 81.38 52.75
  A 1.59 1.59 0.0 0 1 80.51 49.83
  L 81.85 48.97
  A 1.26 1.24 84.9 0 0 82.35 48.36
  Q 82.68 47.49 82.84 46.64
  C 83.59 42.58 85.64 42.98 89.10 43.00
  Q 90.35 43.00 90.96 44.56
  A 1.36 1.36 0.0 0 1 89.71 46.42
  Q 89.18 46.43 88.43 46.49
  C 87.15 46.60 86.61 47.52 86.96 48.72
  Q 87.11 49.21 87.62 49.21
  Z"
/>
<path fill="#fefefe" d="
  M 42.54 48.43
  L 37.77 51.40
  A 0.86 0.86 0.0 0 1 36.79 51.35
  L 34.13 49.28
  A 0.86 0.86 0.0 0 1 34.22 47.87
  L 39.08 44.96
  A 0.86 0.86 0.0 0 1 40.05 45.02
  L 42.62 47.02
  A 0.86 0.86 0.0 0 1 42.54 48.43
  Z"
/>
<path fill="#fefefe" d="
  M 48.19 44.90
  L 53.41 48.10
  A 0.64 0.64 0.0 0 1 53.44 49.17
  L 50.46 51.28
  A 0.64 0.64 0.0 0 1 49.78 51.32
  L 44.59 48.37
  A 0.64 0.64 0.0 0 1 44.50 47.32
  L 47.46 44.94
  A 0.64 0.64 0.0 0 1 48.19 44.90
  Z"
/>
<circle fill="#101d32" cx="134.13" cy="51.32" r="6.10"/>
<circle fill="#d11314" cx="115.70" cy="55.53" r="8.81"/>
<path fill="#151614" d="
  M 221.44 66.56
  A 15.74 15.74 0.0 0 1 205.70 82.30
  A 15.74 15.74 0.0 0 1 189.96 66.56
  A 15.74 15.74 0.0 0 1 205.70 50.82
  A 15.74 15.74 0.0 0 1 221.44 66.56
  Z
  M 216.32 63.34
  A 3.42 3.42 0.0 0 0 212.90 59.92
  A 3.42 3.42 0.0 0 0 209.48 63.34
  A 3.42 3.42 0.0 0 0 212.90 66.76
  A 3.42 3.42 0.0 0 0 216.32 63.34
  Z
  M 208.06 64.24
  A 3.03 3.03 0.0 0 0 205.03 61.21
  A 3.03 3.03 0.0 0 0 202.00 64.24
  A 3.03 3.03 0.0 0 0 205.03 67.27
  A 3.03 3.03 0.0 0 0 208.06 64.24
  Z
  M 200.65 65.17
  A 2.78 2.78 0.0 0 0 197.87 62.39
  A 2.78 2.78 0.0 0 0 195.09 65.17
  A 2.78 2.78 0.0 0 0 197.87 67.95
  A 2.78 2.78 0.0 0 0 200.65 65.17
  Z
  M 209.74 73.00
  L 216.00 72.92
  A 0.84 0.84 0.0 0 0 216.83 72.06
  L 216.82 71.91
  A 4.49 3.83 89.2 0 0 212.93 67.48
  L 212.65 67.48
  A 4.49 3.83 89.2 0 0 208.88 72.03
  L 208.89 72.18
  A 0.84 0.84 0.0 0 0 209.74 73.00
  Z
  M 201.06 71.73
  L 200.64 70.26
  A 1.56 1.47 -78.2 0 0 200.20 69.54
  C 197.85 67.42 194.57 69.14 194.86 72.36
  A 0.53 0.53 0.0 0 0 195.34 72.84
  Q 198.19 73.08 201.06 72.90
  Q 201.73 72.86 202.39 72.91
  Q 204.94 73.08 207.47 72.92
  Q 208.04 72.88 208.15 72.31
  C 209.13 67.16 202.24 66.17 201.64 71.69
  Q 201.48 73.20 201.06 71.73
  Z"
/>
<path fill="#fefefe" d="
  M 43.85 60.08
  Q 44.03 59.35 43.75 58.46
  A 2.59 2.59 0.0 0 1 44.90 55.44
  L 49.28 52.84
  A 1.49 1.48 49.8 0 1 51.00 52.99
  L 53.14 54.80
  Q 53.94 55.48 53.00 55.93
  C 51.59 56.61 50.08 57.35 49.48 58.64
  Q 49.01 59.67 48.66 60.05
  Q 43.88 65.31 38.79 60.11
  Q 38.45 59.76 38.30 59.29
  Q 37.80 57.71 34.45 55.88
  Q 33.42 55.32 34.33 54.58
  L 36.31 52.98
  Q 37.17 52.29 38.12 52.84
  C 39.75 53.79 42.55 54.93 43.15 57.00
  C 43.45 58.07 43.03 59.01 43.11 60.03
  Q 43.31 62.36 43.85 60.08
  Z"
/>
<circle fill="#3a8733" cx="175.51" cy="61.65" r="6.45"/>
<circle fill="#fefefe" cx="212.90" cy="63.34" r="3.42"/>
<path fill="#3a8733" d="
  M 153.74 90.83
  Q 153.31 90.27 153.20 91.41
  Q 147.29 97.54 145.01 98.73
  Q 134.44 104.26 125.01 98.54
  Q 113.29 91.43 114.90 77.32
  Q 115.27 74.09 116.70 71.68
  Q 125.16 57.49 140.24 61.17
  C 152.91 64.27 158.21 78.25 153.84 89.49
  Q 153.55 90.23 153.74 90.83
  Z
  M 127.30 75.87
  L 142.78 75.87
  A 0.24 0.24 0.0 0 0 143.02 75.63
  L 143.02 75.52
  A 7.67 7.42 90.0 0 0 135.60 67.85
  L 134.48 67.85
  A 7.67 7.42 -90.0 0 0 127.06 75.52
  L 127.06 75.63
  A 0.24 0.24 0.0 0 0 127.30 75.87
  Z
  M 125.7574 78.1843
  A 1.23 1.23 0.0 0 0 124.5125 76.9694
  L 124.3525 76.9713
  A 1.23 1.23 0.0 0 0 123.1376 78.2163
  L 123.2226 85.1757
  A 1.23 1.23 0.0 0 0 124.4675 86.3906
  L 124.6275 86.3887
  A 1.23 1.23 0.0 0 0 125.8424 85.1437
  L 125.7574 78.1843
  Z
  M 139.45 91.27
  L 141.58 91.13
  A 1.71 1.69 -2.2 0 0 143.17 89.43
  L 143.14 77.49
  Q 143.14 77.10 142.74 77.10
  L 127.47 77.05
  A 0.46 0.46 0.0 0 0 127.01 77.51
  Q 127.03 83.03 127.00 88.68
  C 126.99 91.14 128.21 91.17 130.29 91.31
  Q 131.21 91.37 131.22 92.29
  L 131.24 94.32
  A 1.63 1.60 -77.0 0 0 132.10 95.72
  L 132.50 95.92
  A 0.93 0.93 0.0 0 0 133.86 95.14
  L 134.02 91.92
  Q 134.07 90.91 135.07 91.07
  L 135.42 91.13
  A 0.72 0.71 -87.0 0 1 136.02 91.80
  L 136.16 94.95
  A 1.12 1.12 0.0 0 0 137.44 96.01
  L 138.00 95.93
  A 0.96 0.96 0.0 0 0 138.83 95.00
  L 138.94 91.80
  A 0.56 0.55 -1.2 0 1 139.45 91.27
  Z
  M 146.9493 78.3419
  A 1.29 1.29 0.0 0 0 145.6706 77.0407
  L 145.5506 77.0397
  A 1.29 1.29 0.0 0 0 144.2494 78.3183
  L 144.1907 85.0381
  A 1.29 1.29 0.0 0 0 145.4694 86.3393
  L 145.5894 86.3403
  A 1.29 1.29 0.0 0 0 146.8906 85.0617
  L 146.9493 78.3419
  Z"
/>
<circle fill="#fefefe" cx="205.03" cy="64.24" r="3.03"/>
<circle fill="#202749" cx="65.14" cy="66.22" r="4.23"/>
<ellipse fill="#3a8733" cx="0.00" cy="0.00" transform="translate(157.43,65.93) rotate(118.2)" rx="3.95" ry="3.79"/>
<circle fill="#fefefe" cx="197.87" cy="65.17" r="2.78"/>
<path fill="#fefefe" d="
  M 209.74 73.00
  A 0.84 0.84 0.0 0 1 208.89 72.18
  L 208.88 72.03
  A 4.49 3.83 89.2 0 1 212.65 67.48
  L 212.93 67.48
  A 4.49 3.83 89.2 0 1 216.82 71.91
  L 216.83 72.06
  A 0.84 0.84 0.0 0 1 216.00 72.92
  L 209.74 73.00
  Z"
/>
<path fill="#fefefe" d="
  M 127.30 75.87
  A 0.24 0.24 0.0 0 1 127.06 75.63
  L 127.06 75.52
  A 7.67 7.42 -90.0 0 1 134.48 67.85
  L 135.60 67.85
  A 7.67 7.42 -90.0 0 1 143.02 75.52
  L 143.02 75.63
  A 0.24 0.24 0.0 0 1 142.78 75.87
  L 127.30 75.87
  Z
  M 131.65 71.97
  A 0.71 0.71 0.0 0 0 130.94 71.26
  A 0.71 0.71 0.0 0 0 130.23 71.97
  A 0.71 0.71 0.0 0 0 130.94 72.68
  A 0.71 0.71 0.0 0 0 131.65 71.97
  Z
  M 139.9692 72.1484
  A 0.82 0.56 31.5 0 0 139.5626 71.2425
  A 0.82 0.56 31.5 0 0 138.5708 71.2916
  A 0.82 0.56 31.5 0 0 138.9774 72.1975
  A 0.82 0.56 31.5 0 0 139.9692 72.1484
  Z"
/>
<path fill="#64aac4" d="
  M 26.82 68.91
  C 38.80 73.15 35.28 90.80 23.25 90.73
  Q 13.20 90.68 11.37 80.77
  C 10.48 75.95 13.93 75.93 14.28 72.00
  Q 14.33 71.47 14.71 71.10
  Q 19.51 66.33 26.82 68.91
  Z
  M 18.16 76.79
  Q 17.07 79.99 17.66 83.36
  Q 17.75 83.86 18.03 84.07
  Q 18.45 84.39 19.10 84.17
  A 0.60 0.60 0.0 0 0 19.51 83.59
  L 19.31 76.46
  Q 19.30 76.10 19.43 75.76
  Q 19.63 75.25 19.38 74.74
  A 0.83 0.83 0.0 0 0 18.46 74.30
  L 18.12 74.37
  A 0.48 0.48 0.0 0 0 17.77 75.01
  L 18.14 75.95
  A 1.26 1.23 44.3 0 1 18.16 76.79
  Z
  M 24.60 78.30
  L 24.99 78.34
  A 1.18 1.17 -87.6 0 1 26.05 79.50
  L 26.10 83.75
  A 0.72 0.71 -86.8 0 0 26.72 84.45
  Q 27.61 84.57 27.81 83.51
  Q 28.30 80.92 27.52 78.51
  A 2.23 2.23 0.0 0 0 24.71 77.07
  Q 23.41 77.50 22.13 77.02
  A 0.60 0.60 0.0 0 0 21.32 77.60
  L 21.43 83.31
  Q 21.45 84.18 22.30 84.34
  L 22.70 84.42
  A 0.38 0.38 0.0 0 0 23.15 84.06
  L 23.31 79.43
  A 1.18 1.17 3.7 0 1 24.60 78.30
  Z"
/>
<path fill="#fefefe" d="
  M 201.64 71.69
  C 202.24 66.17 209.13 67.16 208.15 72.31
  Q 208.04 72.88 207.47 72.92
  Q 204.94 73.08 202.39 72.91
  Q 201.73 72.86 201.06 72.90
  Q 198.19 73.08 195.34 72.84
  A 0.53 0.53 0.0 0 1 194.86 72.36
  C 194.57 69.14 197.85 67.42 200.20 69.54
  A 1.56 1.47 -78.2 0 1 200.64 70.26
  L 201.06 71.73
  Q 201.48 73.20 201.64 71.69
  Z"
/>
<ellipse fill="#3a8733" cx="0.00" cy="0.00" transform="translate(103.79,77.40) rotate(-39.7)" rx="8.57" ry="8.37"/>
<path fill="#429fd1" d="
  M 187.47 83.20
  A 12.35 12.35 0.0 0 1 175.12 95.55
  A 12.35 12.35 0.0 0 1 162.77 83.20
  A 12.35 12.35 0.0 0 1 175.12 70.85
  A 12.35 12.35 0.0 0 1 187.47 83.20
  Z
  M 175.0057 80.6596
  A 1.69 1.69 0.0 0 0 173.2864 78.9994
  L 169.7070 79.0619
  A 1.69 1.69 0.0 0 0 168.0467 80.7811
  L 168.1343 85.8004
  A 1.69 1.69 0.0 0 0 169.8536 87.4606
  L 173.4330 87.3981
  A 1.69 1.69 0.0 0 0 175.0933 85.6789
  L 175.0057 80.6596
  Z
  M 176.43 83.22
  C 175.37 85.57 177.64 88.34 180.18 87.62
  C 183.45 86.68 181.59 81.59 180.10 79.61
  Q 179.77 79.17 179.23 79.15
  L 178.24 79.12
  Q 177.77 79.10 177.70 79.57
  Q 177.52 80.82 176.43 83.22
  Z"
/>
<circle fill="#3a8733" cx="130.94" cy="71.97" r="0.71"/>
<ellipse fill="#3a8733" cx="0.00" cy="0.00" transform="translate(139.27,71.72) rotate(31.5)" rx="0.82" ry="0.56"/>
<path fill="#512259" d="
  M 97.24 96.09
  A 23.41 23.41 0.0 0 1 73.83 119.50
  A 23.41 23.41 0.0 0 1 50.42 96.09
  A 23.41 23.41 0.0 0 1 73.83 72.68
  A 23.41 23.41 0.0 0 1 97.24 96.09
  Z
  M 74.45 85.89
  C 79.22 85.72 82.95 89.21 84.13 93.75
  A 0.71 0.71 0.0 0 0 84.88 94.28
  L 85.22 94.25
  Q 86.42 94.14 86.09 92.98
  Q 83.59 84.27 74.52 83.68
  A 0.61 0.60 -86.2 0 0 73.88 84.25
  L 73.82 85.24
  Q 73.78 85.91 74.45 85.89
  Z
  M 76.68 102.55
  Q 70.69 100.24 67.56 94.66
  A 0.91 0.90 57.6 0 1 67.82 93.48
  C 70.91 91.26 68.65 87.89 67.56 85.37
  A 2.44 2.43 65.5 0 0 64.28 84.14
  C 59.74 86.28 60.10 91.70 62.45 95.55
  Q 67.34 103.56 75.04 107.18
  C 79.60 109.32 85.29 109.65 87.09 103.83
  A 1.75 1.75 0.0 0 0 86.17 101.73
  L 81.64 99.59
  Q 80.39 99.00 79.52 100.07
  L 77.71 102.28
  Q 77.29 102.79 76.68 102.55
  Z
  M 75.06 88.92
  C 78.96 89.39 79.52 91.37 81.21 94.37
  Q 81.44 94.78 81.91 94.74
  Q 82.22 94.72 82.48 94.56
  Q 82.98 94.27 82.95 93.69
  C 82.71 89.46 78.00 86.72 74.27 86.91
  A 0.47 0.46 76.6 0 0 73.87 87.57
  L 74.20 88.28
  A 1.10 1.10 0.0 0 0 75.06 88.92
  Z
  M 74.12 90.68
  L 79.36 95.38
  A 0.16 0.16 0.0 0 0 79.58 95.37
  L 79.60 95.35
  A 3.52 2.16 41.9 0 0 78.42 91.40
  L 78.18 91.18
  A 3.52 2.16 41.9 0 0 74.12 90.44
  L 74.11 90.45
  A 0.16 0.16 0.0 0 0 74.12 90.68
  Z"
/>
<ellipse fill="#512259" cx="0.00" cy="0.00" transform="translate(47.64,79.55) rotate(42.1)" rx="5.80" ry="5.50"/>
<path fill="#fefefe" d="
  M 18.14 75.95
  L 17.77 75.01
  A 0.48 0.48 0.0 0 1 18.12 74.37
  L 18.46 74.30
  A 0.83 0.83 0.0 0 1 19.38 74.74
  Q 19.63 75.25 19.43 75.76
  Q 19.30 76.10 19.31 76.46
  L 19.51 83.59
  A 0.60 0.60 0.0 0 1 19.10 84.17
  Q 18.45 84.39 18.03 84.07
  Q 17.75 83.86 17.66 83.36
  Q 17.07 79.99 18.16 76.79
  A 1.26 1.23 44.3 0 0 18.14 75.95
  Z"
/>
<path fill="#fefefe" d="
  M 23.31 79.43
  L 23.15 84.06
  A 0.38 0.38 0.0 0 1 22.70 84.42
  L 22.30 84.34
  Q 21.45 84.18 21.43 83.31
  L 21.32 77.60
  A 0.60 0.60 0.0 0 1 22.13 77.02
  Q 23.41 77.50 24.71 77.07
  A 2.23 2.23 0.0 0 1 27.52 78.51
  Q 28.30 80.92 27.81 83.51
  Q 27.61 84.57 26.72 84.45
  A 0.72 0.71 -86.8 0 1 26.10 83.75
  L 26.05 79.50
  A 1.18 1.17 -87.6 0 0 24.99 78.34
  L 24.60 78.30
  A 1.18 1.17 3.7 0 0 23.31 79.43
  Z"
/>
<rect fill="#fefefe" x="-1.31" y="-4.71" transform="translate(124.49,81.68) rotate(-0.7)" width="2.62" height="9.42" rx="1.23"/>
<path fill="#fefefe" d="
  M 138.94 91.80
  L 138.83 95.00
  A 0.96 0.96 0.0 0 1 138.00 95.93
  L 137.44 96.01
  A 1.12 1.12 0.0 0 1 136.16 94.95
  L 136.02 91.80
  A 0.72 0.71 -87.0 0 0 135.42 91.13
  L 135.07 91.07
  Q 134.07 90.91 134.02 91.92
  L 133.86 95.14
  A 0.93 0.93 0.0 0 1 132.50 95.92
  L 132.10 95.72
  A 1.63 1.60 -77.0 0 1 131.24 94.32
  L 131.22 92.29
  Q 131.21 91.37 130.29 91.31
  C 128.21 91.17 126.99 91.14 127.00 88.68
  Q 127.03 83.03 127.01 77.51
  A 0.46 0.46 0.0 0 1 127.47 77.05
  L 142.74 77.10
  Q 143.14 77.10 143.14 77.49
  L 143.17 89.43
  A 1.71 1.69 -2.2 0 1 141.58 91.13
  L 139.45 91.27
  A 0.56 0.55 -1.2 0 0 138.94 91.80
  Z"
/>
<rect fill="#fefefe" x="-1.35" y="-4.65" transform="translate(145.57,81.69) rotate(0.5)" width="2.70" height="9.30" rx="1.29"/>
<path fill="#fefefe" d="
  M 175.0933 85.6789
  A 1.69 1.69 0.0 0 1 173.4330 87.3981
  L 169.8536 87.4606
  A 1.69 1.69 0.0 0 1 168.1343 85.8004
  L 168.0467 80.7811
  A 1.69 1.69 0.0 0 1 169.7070 79.0619
  L 173.2864 78.9994
  A 1.69 1.69 0.0 0 1 175.0057 80.6596
  L 175.0933 85.6789
  Z
  M 173.0086 81.1014
  A 0.75 0.75 0.0 0 0 172.3003 80.3119
  L 170.8025 80.2308
  A 0.75 0.75 0.0 0 0 170.0130 80.9392
  L 169.9914 81.3386
  A 0.75 0.75 0.0 0 0 170.6997 82.1281
  L 172.1975 82.2092
  A 0.75 0.75 0.0 0 0 172.9870 81.5008
  L 173.0086 81.1014
  Z
  M 173.4089 84.5334
  A 0.68 0.68 0.0 0 0 172.6920 83.8924
  L 170.5753 84.0107
  A 0.68 0.68 0.0 0 0 169.9343 84.7276
  L 169.9711 85.3866
  A 0.68 0.68 0.0 0 0 170.6880 86.0276
  L 172.8047 85.9093
  A 0.68 0.68 0.0 0 0 173.4457 85.1924
  L 173.4089 84.5334
  Z"
/>
<path fill="#fefefe" d="
  M 176.43 83.22
  Q 177.52 80.82 177.70 79.57
  Q 177.77 79.10 178.24 79.12
  L 179.23 79.15
  Q 179.77 79.17 180.10 79.61
  C 181.59 81.59 183.45 86.68 180.18 87.62
  C 177.64 88.34 175.37 85.57 176.43 83.22
  Z
  M 179.21 84.72
  Q 178.70 84.94 178.51 85.34
  A 0.58 0.57 17.9 0 0 178.93 86.16
  Q 179.64 86.28 180.28 85.98
  Q 180.81 85.73 180.44 85.27
  Q 180.18 84.95 179.78 84.78
  Q 180.10 83.46 179.95 82.96
  Q 179.37 81.08 178.58 82.88
  Q 178.27 83.59 179.21 84.72
  Z"
/>
<rect fill="#296eac" x="-1.50" y="-0.95" transform="translate(171.50,81.22) rotate(3.1)" width="3.00" height="1.90" rx="0.75"/>
<circle fill="#151614" cx="222.73" cy="88.54" r="8.22"/>
<path fill="#429fd1" d="
  M 179.78 84.78
  Q 179.47 84.99 179.21 84.72
  Q 178.27 83.59 178.58 82.88
  Q 179.37 81.08 179.95 82.96
  Q 180.10 83.46 179.78 84.78
  Z"
/>
<path fill="#fefefe" d="
  M 84.13 93.75
  C 82.95 89.21 79.22 85.72 74.45 85.89
  Q 73.78 85.91 73.82 85.24
  L 73.88 84.25
  A 0.61 0.60 -86.2 0 1 74.52 83.68
  Q 83.59 84.27 86.09 92.98
  Q 86.42 94.14 85.22 94.25
  L 84.88 94.28
  A 0.71 0.71 0.0 0 1 84.13 93.75
  Z"
/>
<path fill="#fefefe" d="
  M 77.71 102.28
  L 79.52 100.07
  Q 80.39 99.00 81.64 99.59
  L 86.17 101.73
  A 1.75 1.75 0.0 0 1 87.09 103.83
  C 85.29 109.65 79.60 109.32 75.04 107.18
  Q 67.34 103.56 62.45 95.55
  C 60.10 91.70 59.74 86.28 64.28 84.14
  A 2.44 2.43 65.5 0 1 67.56 85.37
  C 68.65 87.89 70.91 91.26 67.82 93.48
  A 0.91 0.90 57.6 0 0 67.56 94.66
  Q 70.69 100.24 76.68 102.55
  Q 77.29 102.79 77.71 102.28
  Z"
/>
<rect fill="#296eac" x="-1.74" y="-1.01" transform="translate(171.69,84.96) rotate(-3.2)" width="3.48" height="2.02" rx="0.68"/>
<path fill="#296eac" d="
  M 179.21 84.72
  Q 179.47 84.99 179.78 84.78
  Q 180.18 84.95 180.44 85.27
  Q 180.81 85.73 180.28 85.98
  Q 179.64 86.28 178.93 86.16
  A 0.58 0.57 17.9 0 1 178.51 85.34
  Q 178.70 84.94 179.21 84.72
  Z"
/>
<path fill="#fefefe" d="
  M 81.21 94.37
  C 79.52 91.37 78.96 89.39 75.06 88.92
  A 1.10 1.10 0.0 0 1 74.20 88.28
  L 73.87 87.57
  A 0.47 0.46 76.6 0 1 74.27 86.91
  C 78.00 86.72 82.71 89.46 82.95 93.69
  Q 82.98 94.27 82.48 94.56
  Q 82.22 94.72 81.91 94.74
  Q 81.44 94.78 81.21 94.37
  Z"
/>
<path fill="#fefefe" d="
  M 74.12 90.68
  A 0.16 0.16 0.0 0 1 74.11 90.45
  L 74.12 90.44
  A 3.52 2.16 41.9 0 1 78.18 91.18
  L 78.42 91.40
  A 3.52 2.16 41.9 0 1 79.60 95.35
  L 79.58 95.37
  A 0.16 0.16 0.0 0 1 79.36 95.38
  L 74.12 90.68
  Z"
/>
<circle fill="#2c302e" cx="107.98" cy="94.13" r="4.19"/>
<path fill="#429fd1" d="
  M 153.20 91.41
  Q 153.31 90.27 153.74 90.83
  C 156.03 90.43 158.10 89.55 160.24 90.95
  C 164.38 93.67 162.08 100.96 157.25 100.09
  Q 151.84 99.11 153.20 91.41
  Z"
/>
<path fill="#09394e" d="
  M 222.75 115.72
  A 22.14 22.14 0.0 0 1 200.61 137.86
  A 22.14 22.14 0.0 0 1 178.47 115.72
  A 22.14 22.14 0.0 0 1 200.61 93.58
  A 22.14 22.14 0.0 0 1 222.75 115.72
  Z
  M 187.33 111.19
  C 195.13 103.94 206.20 104.52 214.22 111.16
  A 0.53 0.52 -47.4 0 0 214.94 111.12
  L 217.38 108.63
  A 0.50 0.49 43.8 0 0 217.36 107.92
  C 208.19 99.45 194.07 99.47 184.50 107.45
  A 1.28 1.28 0.0 0 0 184.31 109.21
  L 185.73 111.06
  Q 186.46 112.00 187.33 111.19
  Z
  M 192.03 115.71
  C 197.22 111.65 204.12 111.49 209.18 115.59
  A 1.13 1.13 0.0 0 0 210.70 115.50
  L 212.46 113.71
  Q 213.25 112.90 212.35 112.22
  C 205.42 106.90 195.35 106.63 188.82 112.57
  A 0.81 0.81 0.0 0 0 188.79 113.74
  L 190.65 115.62
  Q 191.30 116.28 192.03 115.71
  Z
  M 204.60 120.24
  Q 205.37 120.79 206.04 120.12
  L 207.80 118.33
  Q 208.60 117.51 207.64 116.90
  Q 200.65 112.42 193.73 116.95
  A 0.98 0.97 -39.1 0 0 193.57 118.46
  L 195.07 119.95
  Q 195.92 120.78 196.92 120.14
  Q 200.86 117.60 204.60 120.24
  Z
  M 205.10 125.43
  A 4.43 4.43 0.0 0 0 200.67 121.00
  A 4.43 4.43 0.0 0 0 196.24 125.43
  A 4.43 4.43 0.0 0 0 200.67 129.86
  A 4.43 4.43 0.0 0 0 205.10 125.43
  Z"
/>
<path fill="#209a39" d="
  M 47.8406 122.3001
  A 17.41 17.02 31.9 0 1 24.0660 127.5495
  A 17.41 17.02 31.9 0 1 18.2794 103.8999
  A 17.41 17.02 31.9 0 1 42.0540 98.6505
  A 17.41 17.02 31.9 0 1 47.8406 122.3001
  Z
  M 40.56 119.75
  C 48.29 109.82 35.83 97.42 26.16 105.23
  Q 22.71 108.02 22.31 112.98
  C 22.02 116.54 24.77 118.14 22.64 122.18
  Q 21.58 124.19 23.65 123.24
  C 25.51 122.38 27.20 122.33 29.37 122.93
  Q 36.54 124.91 40.56 119.75
  Z"
/>
<circle fill="#101d32" cx="174.37" cy="104.45" r="3.88"/>
<path fill="#2c302e" d="
  M 124.14 115.54
  A 14.11 14.11 0.0 0 1 110.03 129.65
  A 14.11 14.11 0.0 0 1 95.92 115.54
  A 14.11 14.11 0.0 0 1 110.03 101.43
  A 14.11 14.11 0.0 0 1 124.14 115.54
  Z
  M 109.4031 109.5834
  A 2.79 1.26 132.0 0 0 112.2064 108.3531
  A 2.79 1.26 132.0 0 0 113.1369 105.4366
  A 2.79 1.26 132.0 0 0 110.3336 106.6669
  A 2.79 1.26 132.0 0 0 109.4031 109.5834
  Z
  M 105.56 109.42
  C 99.44 112.55 100.83 120.52 105.87 123.84
  A 1.33 1.30 -36.7 0 0 106.97 123.99
  Q 109.97 123.02 112.98 123.94
  Q 113.53 124.11 114.02 123.82
  Q 116.38 122.41 117.38 119.85
  A 0.95 0.95 0.0 0 0 117.24 118.91
  L 115.46 116.62
  A 2.53 2.52 44.5 0 1 115.43 113.58
  L 116.75 111.79
  Q 117.06 111.37 116.72 110.99
  Q 114.88 108.92 112.72 109.64
  Q 109.13 110.83 106.53 109.43
  Q 106.05 109.17 105.56 109.42
  Z"
/>
<path fill="#fefefe" d="
  M 214.22 111.16
  C 206.20 104.52 195.13 103.94 187.33 111.19
  Q 186.46 112.00 185.73 111.06
  L 184.31 109.21
  A 1.28 1.28 0.0 0 1 184.50 107.45
  C 194.07 99.47 208.19 99.45 217.36 107.92
  A 0.50 0.49 43.8 0 1 217.38 108.63
  L 214.94 111.12
  A 0.53 0.52 -47.4 0 1 214.22 111.16
  Z"
/>
<path fill="#fefefe" d="
  M 40.56 119.75
  Q 36.54 124.91 29.37 122.93
  C 27.20 122.33 25.51 122.38 23.65 123.24
  Q 21.58 124.19 22.64 122.18
  C 24.77 118.14 22.02 116.54 22.31 112.98
  Q 22.71 108.02 26.16 105.23
  C 35.83 97.42 48.29 109.82 40.56 119.75
  Z
  M 25.34 119.12
  L 24.96 120.44
  Q 24.76 121.11 25.45 121.03
  Q 26.26 120.95 26.99 120.56
  A 1.12 1.11 -46.5 0 1 27.96 120.53
  C 32.76 122.62 37.77 122.13 40.32 117.38
  C 44.03 110.46 37.55 102.53 30.16 104.79
  C 23.61 106.81 23.30 112.51 25.31 118.06
  Q 25.50 118.58 25.34 119.12
  Z"
/>
<path fill="#101d32" d="
  M 173.48 117.61
  A 13.93 13.93 0.0 0 1 159.55 131.54
  A 13.93 13.93 0.0 0 1 145.62 117.61
  A 13.93 13.93 0.0 0 1 159.55 103.68
  A 13.93 13.93 0.0 0 1 173.48 117.61
  Z
  M 160.88 112.39
  L 160.73 109.20
  Q 160.71 108.68 160.20 108.80
  Q 157.55 109.47 156.99 112.17
  Q 156.86 112.79 156.32 113.12
  Q 155.41 113.68 155.32 114.72
  A 0.81 0.80 16.5 0 0 155.74 115.49
  C 157.90 116.68 157.09 121.60 157.14 123.74
  C 157.20 126.70 160.43 127.51 162.55 126.77
  Q 163.64 126.39 163.53 125.24
  L 163.48 124.75
  Q 163.36 123.50 162.13 123.74
  Q 160.90 123.98 160.85 122.50
  Q 160.76 119.64 160.78 116.74
  Q 160.79 116.07 161.46 116.01
  L 162.48 115.92
  A 0.79 0.78 8.4 0 0 163.15 115.43
  Q 163.49 114.62 163.22 113.73
  A 0.68 0.68 0.0 0 0 162.71 113.27
  L 161.40 112.99
  Q 160.91 112.89 160.88 112.39
  Z"
/>
<circle fill="#101d32" cx="135.57" cy="112.22" r="7.87"/>
<path fill="#209a39" d="
  M 25.31 118.06
  C 23.30 112.51 23.61 106.81 30.16 104.79
  C 37.55 102.53 44.03 110.46 40.32 117.38
  C 37.77 122.13 32.76 122.62 27.96 120.53
  A 1.12 1.11 -46.5 0 0 26.99 120.56
  Q 26.26 120.95 25.45 121.03
  Q 24.76 121.11 24.96 120.44
  L 25.34 119.12
  Q 25.50 118.58 25.31 118.06
  Z
  M 36.14 115.09
  C 33.69 116.23 31.24 115.08 30.25 112.71
  Q 30.04 112.21 30.27 111.71
  Q 31.09 109.96 29.76 108.53
  Q 29.31 108.04 28.80 108.46
  C 23.51 112.79 36.58 121.82 37.80 116.42
  A 1.18 1.18 0.0 0 0 36.14 115.09
  Z"
/>
<ellipse fill="#fefefe" cx="0.00" cy="0.00" transform="translate(111.27,107.51) rotate(132.0)" rx="2.79" ry="1.26"/>
<path fill="#fefefe" d="
  M 30.25 112.71
  C 31.24 115.08 33.69 116.23 36.14 115.09
  A 1.18 1.18 0.0 0 1 37.80 116.42
  C 36.58 121.82 23.51 112.79 28.80 108.46
  Q 29.31 108.04 29.76 108.53
  Q 31.09 109.96 30.27 111.71
  Q 30.04 112.21 30.25 112.71
  Z"
/>
<path fill="#fefefe" d="
  M 209.18 115.59
  C 204.12 111.49 197.22 111.65 192.03 115.71
  Q 191.30 116.28 190.65 115.62
  L 188.79 113.74
  A 0.81 0.81 0.0 0 1 188.82 112.57
  C 195.35 106.63 205.42 106.90 212.35 112.22
  Q 213.25 112.90 212.46 113.71
  L 210.70 115.50
  A 1.13 1.13 0.0 0 1 209.18 115.59
  Z"
/>
<path fill="#fefefe" d="
  M 161.40 112.99
  L 162.71 113.27
  A 0.68 0.68 0.0 0 1 163.22 113.73
  Q 163.49 114.62 163.15 115.43
  A 0.79 0.78 8.4 0 1 162.48 115.92
  L 161.46 116.01
  Q 160.79 116.07 160.78 116.74
  Q 160.76 119.64 160.85 122.50
  Q 160.90 123.98 162.13 123.74
  Q 163.36 123.50 163.48 124.75
  L 163.53 125.24
  Q 163.64 126.39 162.55 126.77
  C 160.43 127.51 157.20 126.70 157.14 123.74
  C 157.09 121.60 157.90 116.68 155.74 115.49
  A 0.81 0.80 16.5 0 1 155.32 114.72
  Q 155.41 113.68 156.32 113.12
  Q 156.86 112.79 156.99 112.17
  Q 157.55 109.47 160.20 108.80
  Q 160.71 108.68 160.73 109.20
  L 160.88 112.39
  Q 160.91 112.89 161.40 112.99
  Z"
/>
<path fill="#fefefe" d="
  M 105.87 123.84
  C 100.83 120.52 99.44 112.55 105.56 109.42
  Q 106.05 109.17 106.53 109.43
  Q 109.13 110.83 112.72 109.64
  Q 114.88 108.92 116.72 110.99
  Q 117.06 111.37 116.75 111.79
  L 115.43 113.58
  A 2.53 2.52 44.5 0 0 115.46 116.62
  L 117.24 118.91
  A 0.95 0.95 0.0 0 1 117.38 119.85
  Q 116.38 122.41 114.02 123.82
  Q 113.53 124.11 112.98 123.94
  Q 109.97 123.02 106.97 123.99
  A 1.33 1.30 -36.7 0 1 105.87 123.84
  Z"
/>
<path fill="#fefefe" d="
  M 204.60 120.24
  Q 200.86 117.60 196.92 120.14
  Q 195.92 120.78 195.07 119.95
  L 193.57 118.46
  A 0.98 0.97 -39.1 0 1 193.73 116.95
  Q 200.65 112.42 207.64 116.90
  Q 208.60 117.51 207.80 118.33
  L 206.04 120.12
  Q 205.37 120.79 204.60 120.24
  Z"
/>
<ellipse fill="#209a39" cx="0.00" cy="0.00" transform="translate(56.55,122.92) rotate(-30.0)" rx="4.53" ry="4.26"/>
<circle fill="#2c302e" cx="91.15" cy="124.30" r="4.11"/>
<circle fill="#fefefe" cx="200.67" cy="125.43" r="4.43"/>
<path fill="#151614" d="
  M 86.34 137.66
  A 13.41 13.41 0.0 0 1 72.93 151.07
  A 13.41 13.41 0.0 0 1 59.52 137.66
  A 13.41 13.41 0.0 0 1 72.93 124.25
  A 13.41 13.41 0.0 0 1 86.34 137.66
  Z
  M 69.98 139.16
  L 68.20 139.93
  A 2.28 2.28 0.0 0 0 67.25 143.33
  C 68.98 145.77 74.28 145.17 75.45 142.73
  C 76.60 140.34 74.54 139.19 73.17 137.76
  A 0.81 0.81 0.0 0 1 73.33 136.52
  Q 75.99 134.86 74.63 131.77
  A 0.59 0.56 48.5 0 1 74.65 131.27
  Q 74.73 131.13 74.78 130.95
  Q 74.90 130.60 74.53 130.53
  C 72.03 130.05 66.82 131.19 67.76 134.49
  Q 68.43 136.83 69.72 137.05
  Q 73.35 137.70 69.98 139.16
  Z
  M 79.92 133.49
  L 80.63 133.15
  A 0.44 0.44 0.0 0 0 80.63 132.36
  Q 79.46 131.80 78.76 130.73
  Q 78.61 130.51 78.43 130.70
  L 76.43 132.74
  A 0.17 0.17 0.0 0 0 76.49 133.02
  Q 77.65 133.50 78.18 134.63
  A 0.44 0.44 0.0 0 0 78.96 134.66
  L 79.27 134.09
  Q 79.50 133.69 79.92 133.49
  Z"
/>
<path fill="#151614" d="
  M 151.29 143.95
  A 16.90 16.90 0.0 0 1 134.39 160.85
  A 16.90 16.90 0.0 0 1 117.49 143.95
  A 16.90 16.90 0.0 0 1 134.39 127.05
  A 16.90 16.90 0.0 0 1 151.29 143.95
  Z
  M 124.93 141.74
  Q 129.29 140.84 133.58 142.03
  A 0.47 0.47 0.0 0 0 134.15 141.71
  L 135.97 135.42
  A 1.49 1.48 -63.1 0 0 135.45 133.82
  C 132.34 131.38 126.56 131.57 125.60 136.27
  Q 125.08 138.77 124.57 141.38
  A 0.31 0.31 0.0 0 0 124.93 141.74
  Z
  M 146.27 136.24
  C 143.57 136.42 141.38 137.20 139.03 135.86
  Q 137.65 135.07 137.22 136.59
  L 135.53 142.55
  Q 135.08 144.12 136.60 144.72
  Q 140.32 146.20 143.93 144.53
  Q 145.02 144.02 145.65 141.98
  Q 146.41 139.52 146.97 137.07
  A 0.68 0.68 0.0 0 0 146.27 136.24
  Z
  M 121.85 150.09
  A 1.26 1.26 0.0 0 0 122.98 151.69
  L 130.15 152.17
  A 1.26 1.26 0.0 0 0 131.46 151.24
  L 133.19 144.73
  A 1.26 1.26 0.0 0 0 131.96 143.14
  L 124.74 143.20
  A 1.26 1.26 0.0 0 0 123.54 144.12
  L 121.85 150.09
  Z
  M 134.91 145.44
  Q 134.69 145.33 134.63 145.56
  L 132.67 152.74
  Q 132.38 153.82 133.32 154.43
  Q 136.54 156.53 140.19 155.11
  Q 141.87 154.46 142.37 152.73
  L 143.85 147.57
  Q 144.26 146.17 142.83 146.49
  Q 138.62 147.47 134.91 145.44
  Z"
/>
<path fill="#fefefe" d="
  M 69.98 139.16
  Q 73.35 137.70 69.72 137.05
  Q 68.43 136.83 67.76 134.49
  C 66.82 131.19 72.03 130.05 74.53 130.53
  Q 74.90 130.60 74.78 130.95
  Q 74.73 131.13 74.65 131.27
  A 0.59 0.56 48.5 0 0 74.63 131.77
  Q 75.99 134.86 73.33 136.52
  A 0.81 0.81 0.0 0 0 73.17 137.76
  C 74.54 139.19 76.60 140.34 75.45 142.73
  C 74.28 145.17 68.98 145.77 67.25 143.33
  A 2.28 2.28 0.0 0 1 68.20 139.93
  L 69.98 139.16
  Z
  M 72.2764 136.5251
  A 2.73 1.89 72.6 0 0 73.2635 133.3548
  A 2.73 1.89 72.6 0 0 70.6436 131.3149
  A 2.73 1.89 72.6 0 0 69.6565 134.4852
  A 2.73 1.89 72.6 0 0 72.2764 136.5251
  Z
  M 74.3793 142.1603
  A 2.93 2.33 4.9 0 0 71.6590 139.5885
  A 2.93 2.33 4.9 0 0 68.5407 141.6597
  A 2.93 2.33 4.9 0 0 71.2610 144.2315
  A 2.93 2.33 4.9 0 0 74.3793 142.1603
  Z"
/>
<path fill="#fefefe" d="
  M 79.27 134.09
  L 78.96 134.66
  A 0.44 0.44 0.0 0 1 78.18 134.63
  Q 77.65 133.50 76.49 133.02
  A 0.17 0.17 0.0 0 1 76.43 132.74
  L 78.43 130.70
  Q 78.61 130.51 78.76 130.73
  Q 79.46 131.80 80.63 132.36
  A 0.44 0.44 0.0 0 1 80.63 133.15
  L 79.92 133.49
  Q 79.50 133.69 79.27 134.09
  Z"
/>
<ellipse fill="#151614" cx="0.00" cy="0.00" transform="translate(71.46,133.92) rotate(72.6)" rx="2.73" ry="1.89"/>
<path fill="#5bab4f" d="
  M 95.79 150.57
  Q 95.50 148.86 93.67 147.94
  Q 92.37 145.69 92.56 143.00
  C 93.40 130.67 109.25 127.81 114.38 139.58
  Q 115.36 141.83 114.77 143.97
  C 113.34 149.15 111.50 153.11 105.50 153.91
  Q 100.02 154.64 95.79 150.57
  Z
  M 102.72 141.91
  Q 104.77 139.81 107.74 139.24
  A 1.39 1.38 76.3 0 0 108.80 137.49
  Q 108.27 135.71 106.59 136.37
  A 2.00 1.99 4.6 0 0 105.60 137.21
  Q 103.94 140.10 100.86 141.34
  Q 97.69 142.61 100.74 144.14
  Q 104.20 145.88 106.25 149.20
  A 1.29 1.29 0.0 0 0 108.42 149.24
  Q 109.14 148.19 108.60 147.44
  Q 108.33 147.06 107.30 146.68
  Q 104.45 145.64 102.66 143.45
  A 1.16 1.15 47.4 0 1 102.72 141.91
  Z"
/>
<path fill="#d11314" d="
  M 124.93 141.74
  A 0.31 0.31 0.0 0 1 124.57 141.38
  Q 125.08 138.77 125.60 136.27
  C 126.56 131.57 132.34 131.38 135.45 133.82
  A 1.49 1.48 -63.1 0 1 135.97 135.42
  L 134.15 141.71
  A 0.47 0.47 0.0 0 1 133.58 142.03
  Q 129.29 140.84 124.93 141.74
  Z"
/>
<circle fill="#151614" cx="46.15" cy="140.46" r="8.08"/>
<path fill="#6e3c8a" d="
  M 188.57 148.35
  A 14.64 14.64 0.0 0 1 173.93 162.99
  A 14.64 14.64 0.0 0 1 159.29 148.35
  A 14.64 14.64 0.0 0 1 173.93 133.71
  A 14.64 14.64 0.0 0 1 188.57 148.35
  Z
  M 176.74 145.75
  L 174.32 147.77
  Q 173.80 148.21 173.38 147.68
  L 170.30 143.90
  A 0.42 0.42 0.0 0 1 170.73 143.23
  Q 171.75 143.48 171.94 143.34
  Q 173.74 142.10 171.50 142.03
  L 163.58 141.78
  A 0.53 0.52 -85.2 0 0 163.04 142.24
  L 162.99 142.57
  A 0.31 0.31 0.0 0 0 163.25 142.92
  C 166.69 143.50 168.18 145.96 170.38 149.08
  C 171.56 150.75 172.45 154.06 168.90 153.48
  Q 168.36 153.40 168.26 153.94
  L 168.19 154.32
  A 0.56 0.56 0.0 0 0 168.74 154.99
  L 176.50 154.98
  Q 179.44 154.98 176.95 153.43
  Q 176.90 153.39 176.06 153.61
  A 0.73 0.73 0.0 0 1 175.27 153.31
  C 173.01 149.87 179.47 145.19 182.39 144.90
  A 0.41 0.41 0.0 0 0 182.76 144.45
  L 182.73 144.06
  A 0.57 0.56 87.2 0 0 182.17 143.55
  L 175.44 143.46
  A 0.97 0.97 0.0 0 0 174.52 144.09
  L 174.38 144.46
  A 0.37 0.36 -78.7 0 0 174.71 144.96
  L 176.50 145.03
  Q 177.55 145.07 176.74 145.75
  Z
  M 184.08 146.03
  L 182.81 145.88
  A 0.41 0.41 0.0 0 0 182.36 146.24
  L 182.34 146.41
  A 7.26 0.77 -83.6 0 0 182.29 153.71
  L 182.85 153.78
  A 7.26 0.77 -83.6 0 0 184.43 146.65
  L 184.44 146.48
  A 0.41 0.41 0.0 0 0 184.08 146.03
  Z"
/>
<path fill="#5bab4f" d="
  M 139.03 135.86
  C 141.38 137.20 143.57 136.42 146.27 136.24
  A 0.68 0.68 0.0 0 1 146.97 137.07
  Q 146.41 139.52 145.65 141.98
  Q 145.02 144.02 143.93 144.53
  Q 140.32 146.20 136.60 144.72
  Q 135.08 144.12 135.53 142.55
  L 137.22 136.59
  Q 137.65 135.07 139.03 135.86
  Z"
/>
<path fill="#fbe4e9" d="
  M 102.72 141.91
  A 1.16 1.15 47.4 0 0 102.66 143.45
  Q 104.45 145.64 107.30 146.68
  Q 108.33 147.06 108.60 147.44
  Q 109.14 148.19 108.42 149.24
  A 1.29 1.29 0.0 0 1 106.25 149.20
  Q 104.20 145.88 100.74 144.14
  Q 97.69 142.61 100.86 141.34
  Q 103.94 140.10 105.60 137.21
  A 2.00 1.99 4.6 0 1 106.59 136.37
  Q 108.27 135.71 108.80 137.49
  A 1.39 1.38 76.3 0 1 107.74 139.24
  Q 104.77 139.81 102.72 141.91
  Z"
/>
<ellipse fill="#151614" cx="0.00" cy="0.00" transform="translate(71.46,141.91) rotate(4.9)" rx="2.93" ry="2.33"/>
<path fill="#fefefe" d="
  M 176.50 145.03
  L 174.71 144.96
  A 0.37 0.36 -78.7 0 1 174.38 144.46
  L 174.52 144.09
  A 0.97 0.97 0.0 0 1 175.44 143.46
  L 182.17 143.55
  A 0.57 0.56 87.2 0 1 182.73 144.06
  L 182.76 144.45
  A 0.41 0.41 0.0 0 1 182.39 144.90
  C 179.47 145.19 173.01 149.87 175.27 153.31
  A 0.73 0.73 0.0 0 0 176.06 153.61
  Q 176.90 153.39 176.95 153.43
  Q 179.44 154.98 176.50 154.98
  L 168.74 154.99
  A 0.56 0.56 0.0 0 1 168.19 154.32
  L 168.26 153.94
  Q 168.36 153.40 168.90 153.48
  C 172.45 154.06 171.56 150.75 170.38 149.08
  C 168.18 145.96 166.69 143.50 163.25 142.92
  A 0.31 0.31 0.0 0 1 162.99 142.57
  L 163.04 142.24
  A 0.53 0.52 -85.2 0 1 163.58 141.78
  L 171.50 142.03
  Q 173.74 142.10 171.94 143.34
  Q 171.75 143.48 170.73 143.23
  A 0.42 0.42 0.0 0 0 170.30 143.90
  L 173.38 147.68
  Q 173.80 148.21 174.32 147.77
  L 176.74 145.75
  Q 177.55 145.07 176.50 145.03
  Z"
/>
<circle fill="#09394e" cx="196.25" cy="147.23" r="4.84"/>
<path fill="#296eac" d="
  M 121.85 150.09
  L 123.54 144.12
  A 1.26 1.26 0.0 0 1 124.74 143.20
  L 131.96 143.14
  A 1.26 1.26 0.0 0 1 133.19 144.73
  L 131.46 151.24
  A 1.26 1.26 0.0 0 1 130.15 152.17
  L 122.98 151.69
  A 1.26 1.26 0.0 0 1 121.85 150.09
  Z"
/>
<path fill="#edb13d" d="
  M 134.91 145.44
  Q 138.62 147.47 142.83 146.49
  Q 144.26 146.17 143.85 147.57
  L 142.37 152.73
  Q 141.87 154.46 140.19 155.11
  Q 136.54 156.53 133.32 154.43
  Q 132.38 153.82 132.67 152.74
  L 134.63 145.56
  Q 134.69 145.33 134.91 145.44
  Z"
/>
<path fill="#fefefe" d="
  M 184.08 146.03
  A 0.41 0.41 0.0 0 1 184.44 146.48
  L 184.43 146.65
  A 7.26 0.77 -83.6 0 1 182.85 153.78
  L 182.29 153.71
  A 7.26 0.77 -83.6 0 1 182.34 146.41
  L 182.36 146.24
  A 0.41 0.41 0.0 0 1 182.81 145.88
  L 184.08 146.03
  Z"
/>
<path fill="#2c302e" d="
  M 93.67 147.94
  Q 95.50 148.86 95.79 150.57
  Q 94.39 149.48 93.67 147.94
  Z"
/>
<circle fill="#a91a15" cx="86.89" cy="158.70" r="8.94"/>
<path fill="#429fd1" d="
  M 52.88 170.57
  C 49.12 160.08 56.77 150.56 67.77 153.33
  C 75.11 155.18 78.47 161.18 76.23 168.29
  C 75.25 171.40 74.39 174.22 71.62 176.10
  C 64.54 180.90 55.90 178.99 52.88 170.57
  Z
  M 69.79 173.13
  C 74.50 169.59 71.72 160.63 66.37 158.68
  C 63.02 157.46 56.64 157.34 56.61 162.25
  C 56.58 171.13 60.09 173.60 68.90 173.44
  Q 69.40 173.43 69.79 173.13
  Z"
/>
<circle fill="#6e3c8a" cx="152.72" cy="163.35" r="7.16"/>
<path fill="#151614" d="
  M 117.24 164.71
  A 6.96 6.96 0.0 0 1 110.28 171.67
  A 6.96 6.96 0.0 0 1 103.32 164.71
  A 6.96 6.96 0.0 0 1 110.28 157.75
  A 6.96 6.96 0.0 0 1 117.24 164.71
  Z
  M 107.68 167.49
  L 107.67 170.04
  A 0.49 0.48 68.9 0 0 108.48 170.40
  L 109.63 169.35
  A 1.13 1.12 25.9 0 1 110.48 169.06
  Q 114.85 169.45 115.38 165.23
  C 116.22 158.41 106.53 158.32 105.16 163.99
  Q 104.56 166.49 107.30 167.03
  A 0.47 0.46 -84.8 0 1 107.68 167.49
  Z"
/>
<path fill="#fefefe" d="
  M 66.37 158.68
  C 71.72 160.63 74.50 169.59 69.79 173.13
  Q 69.40 173.43 68.90 173.44
  C 60.09 173.60 56.58 171.13 56.61 162.25
  C 56.64 157.34 63.02 157.46 66.37 158.68
  Z
  M 60.85 167.83
  L 60.90 168.82
  A 0.47 0.45 -77.6 0 0 61.12 169.18
  C 63.26 170.48 67.72 170.92 67.88 167.61
  C 68.00 165.21 64.60 165.06 62.98 164.64
  A 0.95 0.95 0.0 0 1 62.88 162.84
  Q 64.87 162.09 66.51 163.54
  A 0.30 0.30 0.0 0 0 66.98 163.44
  L 67.14 163.11
  A 0.49 0.48 -58.0 0 0 67.01 162.51
  C 65.22 161.05 61.67 160.63 60.99 163.41
  C 60.38 165.85 64.24 166.42 65.77 166.98
  A 0.95 0.95 0.0 0 1 65.69 168.78
  Q 63.20 169.44 61.31 167.62
  A 0.27 0.27 0.0 0 0 60.85 167.83
  Z"
/>
<path fill="#fbe4e9" d="
  M 107.30 167.03
  Q 104.56 166.49 105.16 163.99
  C 106.53 158.32 116.22 158.41 115.38 165.23
  Q 114.85 169.45 110.48 169.06
  A 1.13 1.12 25.9 0 0 109.63 169.35
  L 108.48 170.40
  A 0.49 0.48 68.9 0 1 107.67 170.04
  L 107.68 167.49
  A 0.47 0.46 -84.8 0 0 107.30 167.03
  Z
  M 110.93 164.00
  Q 110.81 165.08 110.32 166.04
  A 0.96 0.96 0.0 0 0 110.30 166.89
  Q 110.87 168.15 111.90 167.16
  C 117.24 161.99 106.42 158.78 107.00 165.19
  Q 107.17 167.07 108.08 165.41
  Q 108.12 165.33 108.32 164.45
  Q 108.75 162.49 110.37 163.09
  A 0.88 0.86 -77.2 0 1 110.93 164.00
  Z"
/>
<path fill="#296eac" d="
  M 61.31 167.62
  Q 63.20 169.44 65.69 168.78
  A 0.95 0.95 0.0 0 0 65.77 166.98
  C 64.24 166.42 60.38 165.85 60.99 163.41
  C 61.67 160.63 65.22 161.05 67.01 162.51
  A 0.49 0.48 -58.0 0 1 67.14 163.11
  L 66.98 163.44
  A 0.30 0.30 0.0 0 1 66.51 163.54
  Q 64.87 162.09 62.88 162.84
  A 0.95 0.95 0.0 0 0 62.98 164.64
  C 64.60 165.06 68.00 165.21 67.88 167.61
  C 67.72 170.92 63.26 170.48 61.12 169.18
  A 0.47 0.45 -77.6 0 1 60.90 168.82
  L 60.85 167.83
  A 0.27 0.27 0.0 0 1 61.31 167.62
  Z"
/>
<path fill="#151614" d="
  M 110.37 163.09
  Q 108.75 162.49 108.32 164.45
  Q 108.12 165.33 108.08 165.41
  Q 107.17 167.07 107.00 165.19
  C 106.42 158.78 117.24 161.99 111.90 167.16
  Q 110.87 168.15 110.30 166.89
  A 0.96 0.96 0.0 0 1 110.32 166.04
  Q 110.81 165.08 110.93 164.00
  A 0.88 0.86 -77.2 0 0 110.37 163.09
  Z"
/>
</svg>
