          <svg
            fill="#090909"
            xmlns="http://www.w3.org/2000/svg"
            version="1.1"
            viewBox="0.00 0.00 1428.00 1287.00"
          >
            <path
              d="
  M 813.80 536.18
  A 1.48 1.46 76.5 0 0 813.01 537.49
  Q 813.00 733.31 813.01 929.50
  C 813.01 932.97 810.33 934.60 807.10 935.65
  Q 793.58 940.06 780.00 944.43
  A 3.85 3.84 -8.9 0 1 774.98 940.77
  L 775.57 178.41
  A 0.89 0.89 0.0 0 1 776.47 177.52
  L 811.37 177.86
  A 1.51 1.51 0.0 0 1 812.87 179.37
  L 813.05 493.84
  A 2.29 2.28 0.0 0 0 815.34 496.12
  L 1150.73 496.12
  A 2.87 2.87 0.0 0 0 1153.60 493.26
  L 1153.99 187.98
  Q 1154.00 186.20 1155.77 186.19
  L 1189.68 186.11
  A 1.24 1.24 0.0 0 1 1190.93 187.34
  Q 1191.72 364.19 1191.37 540.50
  C 1190.92 765.68 1015.91 965.36 798.07 1011.50
  C 775.20 1016.35 752.66 1017.82 727.75 1018.49
  C 709.06 1018.99 690.37 1019.20 671.68 1019.50
  C 646.82 1019.89 621.35 1019.15 596.71 1015.60
  Q 470.06 997.32 370.02 916.01
  Q 341.32 892.68 318.34 869.16
  C 248.10 797.25 199.31 705.69 183.75 607.26
  Q 181.06 590.27 180.53 566.00
  Q 179.36 513.33 179.78 469.50
  Q 180.13 433.59 187.88 397.27
  Q 210.82 289.89 278.06 204.29
  Q 327.28 141.63 392.58 94.45
  C 465.35 41.88 550.09 12.13 640.01 6.52
  C 657.75 5.41 679.08 5.68 698.13 5.95
  C 773.56 7.03 847.08 22.14 914.35 55.43
  Q 918.17 57.32 915.99 61.66
  Q 908.45 76.63 900.82 91.41
  A 4.08 4.08 0.0 0 1 895.43 93.21
  C 884.84 88.11 873.69 82.82 863.09 78.57
  Q 715.37 19.32 561.16 60.59
  Q 551.41 63.20 541.98 66.26
  C 400.73 112.09 287.03 221.55 240.21 363.43
  C 193.75 504.22 214.48 656.32 297.74 778.81
  C 352.44 859.29 430.78 919.80 521.43 953.60
  Q 658.66 1004.77 801.55 968.79
  C 869.62 951.65 936.64 916.53 989.59 870.50
  Q 1111.14 764.81 1145.78 605.80
  Q 1153.05 572.42 1153.09 538.60
  A 2.62 2.62 0.0 0 0 1150.47 535.98
  Q 983.24 536.09 815.50 535.82
  Q 814.50 535.82 813.80 536.18
  Z"
            />
            <path
              d="
  M 1088.08 1144.43
  C 1082.75 1138.87 1074.54 1137.26 1066.51 1135.16
  C 1051.43 1131.22 1036.41 1122.61 1038.86 1104.93
  C 1040.23 1095.02 1046.26 1086.40 1055.85 1083.29
  Q 1084.26 1074.06 1101.78 1096.86
  Q 1103.66 1099.30 1103.60 1101.43
  C 1103.45 1107.64 1094.28 1106.62 1090.23 1104.88
  A 1.56 1.52 -5.1 0 1 1089.53 1104.31
  C 1082.38 1093.45 1065.66 1084.75 1055.20 1097.41
  Q 1051.93 1101.37 1051.23 1106.01
  C 1049.74 1115.89 1061.66 1120.93 1069.29 1123.41
  Q 1083.24 1127.94 1092.45 1132.02
  C 1102.98 1136.69 1106.36 1149.00 1103.19 1159.32
  Q 1097.84 1176.79 1078.98 1179.77
  Q 1054.15 1183.70 1040.49 1163.22
  C 1037.96 1159.43 1036.78 1155.87 1042.18 1153.94
  C 1046.00 1152.58 1049.38 1152.69 1051.50 1156.52
  C 1057.33 1167.02 1066.14 1172.63 1078.24 1168.26
  C 1087.18 1165.03 1096.73 1153.46 1088.08 1144.43
  Z"
            />
            <path
              d="
  M 271.69 1153.34
  C 244.44 1208.55 162.40 1172.13 180.92 1114.64
  C 192.52 1078.63 233.64 1071.52 261.58 1093.17
  C 265.57 1096.26 272.37 1102.38 270.63 1107.68
  C 269.37 1111.53 265.28 1113.48 261.47 1112.00
  Q 259.75 1111.34 257.70 1108.73
  C 245.77 1093.51 223.55 1084.77 206.74 1098.67
  C 185.34 1116.35 186.92 1154.99 214.78 1166.04
  C 230.96 1172.46 244.92 1166.19 256.41 1153.61
  C 260.82 1148.79 265.89 1147.13 271.31 1151.61
  A 1.43 1.42 32.9 0 1 271.69 1153.34
  Z"
            />
            <path
              d="
  M 353.2000 1181.4805
  A 50.14 49.30 88.4 0 1 302.5192 1132.7365
  A 50.14 49.30 88.4 0 1 350.4000 1081.2395
  A 50.14 49.30 88.4 0 1 401.0808 1129.9835
  A 50.14 49.30 88.4 0 1 353.2000 1181.4805
  Z
  M 351.9634 1169.9195
  A 38.84 35.96 89.7 0 0 387.7195 1130.8917
  A 38.84 35.96 89.7 0 0 351.5566 1092.2405
  A 38.84 35.96 89.7 0 0 315.8005 1131.2683
  A 38.84 35.96 89.7 0 0 351.9634 1169.9195
  Z"
            />
            <path
              d="
  M 848.8583 1181.3393
  A 49.98 49.18 90.3 0 1 799.9407 1131.1025
  A 49.98 49.18 90.3 0 1 849.3817 1081.3807
  A 49.98 49.18 90.3 0 1 898.2993 1131.6175
  A 49.98 49.18 90.3 0 1 848.8583 1181.3393
  Z
  M 848.6211 1169.8385
  A 38.84 36.12 90.5 0 0 885.0786 1131.3152
  A 38.84 36.12 90.5 0 0 849.2989 1092.1615
  A 38.84 36.12 90.5 0 0 812.8414 1130.6848
  A 38.84 36.12 90.5 0 0 848.6211 1169.8385
  Z"
            />
            <path
              d="
  M 704.54 1137.77
  L 704.12 1177.38
  A 2.73 2.73 0.0 0 1 701.34 1180.08
  L 694.96 1179.96
  A 2.73 2.73 0.0 0 1 692.28 1177.24
  L 691.97 1084.76
  A 2.73 2.73 0.0 0 1 694.65 1082.02
  L 701.23 1081.91
  A 2.73 2.73 0.0 0 1 704.01 1084.56
  L 705.09 1123.04
  A 2.73 2.73 0.0 0 0 707.84 1125.69
  L 750.73 1125.41
  A 2.73 2.73 0.0 0 0 753.44 1122.70
  L 753.70 1084.98
  A 2.73 2.73 0.0 0 1 756.24 1082.28
  L 763.80 1081.75
  A 2.73 2.73 0.0 0 1 766.72 1084.47
  L 766.80 1177.55
  A 2.73 2.73 0.0 0 1 763.98 1180.28
  L 756.34 1180.03
  A 2.73 2.73 0.0 0 1 753.70 1177.33
  L 753.33 1138.32
  A 2.73 2.73 0.0 0 0 750.64 1135.62
  L 707.31 1135.06
  A 2.73 2.73 0.0 0 0 704.54 1137.77
  Z"
            />
            <path
              d="
  M 943.20 1151.50
  C 943.40 1160.75 952.34 1166.87 960.77 1168.72
  C 969.13 1170.55 980.56 1168.61 985.57 1160.77
  C 990.12 1153.66 990.97 1139.45 991.17 1130.75
  Q 991.63 1110.84 990.23 1090.99
  C 989.78 1084.64 991.72 1081.05 998.77 1082.38
  C 1003.49 1083.27 1003.03 1086.04 1003.11 1090.37
  Q 1003.48 1110.67 1003.76 1131.00
  Q 1003.84 1136.77 1003.11 1143.83
  C 1001.88 1155.63 1000.46 1164.73 992.02 1172.54
  C 976.63 1186.78 949.40 1183.63 937.04 1166.91
  C 930.60 1158.20 929.92 1147.95 929.81 1136.75
  Q 929.57 1111.50 930.18 1086.25
  C 930.30 1080.99 936.06 1081.75 939.76 1082.22
  Q 942.97 1082.64 942.95 1086.75
  Q 942.77 1132.12 943.20 1151.50
  Z"
            />
            <path
              d="
  M 434.55 1085.36
  A 2.84 2.84 0.0 0 1 437.40 1082.53
  L 468.68 1082.64
  A 48.16 46.57 0.2 0 1 516.68 1129.37
  L 516.66 1133.55
  A 48.16 46.57 0.2 0 1 468.34 1179.96
  L 437.06 1179.85
  A 2.84 2.84 0.0 0 1 434.23 1177.00
  L 434.55 1085.36
  Z
  M 446.98 1095.53
  L 447.36 1166.53
  A 2.85 2.85 0.0 0 0 450.22 1169.36
  L 467.14 1169.27
  A 36.01 34.60 -0.3 0 0 502.97 1134.48
  L 502.93 1126.98
  A 36.01 34.60 -0.3 0 0 466.74 1092.57
  L 449.82 1092.66
  A 2.85 2.85 0.0 0 0 446.98 1095.53
  Z"
            />
            <path
              d="
  M 1154.51 1169.19
  L 1189.99 1169.48
  A 2.16 2.16 0.0 0 1 1192.09 1171.23
  L 1193.07 1176.42
  A 2.16 2.16 0.0 0 1 1190.98 1178.98
  L 1142.18 1179.62
  A 2.16 2.16 0.0 0 1 1139.99 1177.46
  L 1140.00 1084.63
  A 2.16 2.16 0.0 0 1 1142.19 1082.47
  L 1190.69 1083.16
  A 2.16 2.16 0.0 0 1 1192.78 1085.71
  L 1191.88 1090.64
  A 2.16 2.16 0.0 0 1 1189.73 1092.41
  L 1154.69 1092.03
  A 2.16 2.16 0.0 0 0 1152.51 1094.19
  L 1152.50 1123.54
  A 2.16 2.16 0.0 0 0 1154.66 1125.70
  L 1186.73 1125.69
  A 2.16 2.16 0.0 0 1 1188.89 1127.93
  L 1188.68 1133.56
  A 2.16 2.16 0.0 0 1 1186.54 1135.65
  L 1154.70 1135.89
  A 2.16 2.16 0.0 0 0 1152.56 1138.04
  L 1152.36 1167.01
  A 2.16 2.16 0.0 0 0 1154.51 1169.19
  Z"
            />
            <path
              d="
  M 597.48 1127.98
  L 597.59 1133.48
  A 2.20 2.20 0.0 0 1 595.41 1135.72
  L 563.83 1135.99
  A 2.20 2.20 0.0 0 0 561.65 1138.22
  L 561.99 1166.69
  A 2.20 2.20 0.0 0 0 564.15 1168.86
  L 599.80 1169.61
  A 2.20 2.20 0.0 0 1 601.95 1171.87
  L 601.80 1177.27
  A 2.20 2.20 0.0 0 1 599.62 1179.41
  L 551.21 1179.76
  A 2.20 2.20 0.0 0 1 549.00 1177.56
  L 549.21 1084.91
  A 2.20 2.20 0.0 0 1 551.43 1082.72
  L 599.67 1083.05
  A 2.20 2.20 0.0 0 1 601.85 1085.15
  L 602.08 1090.04
  A 2.20 2.20 0.0 0 1 599.86 1092.34
  L 564.24 1092.01
  A 2.20 2.20 0.0 0 0 562.02 1094.19
  L 561.72 1122.90
  A 2.20 2.20 0.0 0 0 563.87 1125.12
  L 595.33 1125.82
  A 2.20 2.20 0.0 0 1 597.48 1127.98
  Z"
            />
            <path
              d="
  M 320.25 1280.12
  C 324.88 1266.61 329.85 1253.19 334.66 1239.74
  C 336.16 1235.56 342.00 1234.92 343.60 1239.20
  Q 351.73 1260.87 359.41 1281.46
  Q 360.17 1283.48 358.04 1283.84
  L 356.83 1284.05
  Q 354.55 1284.43 353.44 1282.40
  L 349.60 1275.38
  A 3.90 3.88 -12.1 0 0 346.48 1273.37
  L 332.78 1272.34
  A 1.86 1.85 -71.6 0 0 331.06 1273.21
  Q 327.98 1278.18 324.72 1283.46
  C 323.36 1285.66 318.95 1283.91 320.25 1280.12
  Z
  M 332.42 1266.12
  A 1.36 1.36 0.0 0 0 333.67 1267.94
  L 344.84 1268.15
  A 1.36 1.36 0.0 0 0 346.16 1266.38
  L 340.90 1249.64
  A 1.36 1.36 0.0 0 0 338.32 1249.59
  L 332.42 1266.12
  Z"
            />
            <path
              d="
  M 100.75 1264.05
  Q 98.27 1264.15 90.25 1263.81
  Q 87.37 1263.69 88.16 1260.92
  L 88.27 1260.55
  Q 89.06 1257.78 91.94 1257.87
  Q 98.24 1258.07 107.50 1257.98
  C 111.63 1257.94 113.05 1262.28 112.82 1265.53
  C 112.01 1277.08 98.79 1284.45 88.37 1284.40
  C 66.27 1284.30 58.25 1252.19 77.15 1240.73
  Q 90.03 1232.93 103.52 1240.84
  C 108.70 1243.88 112.76 1247.08 110.01 1253.41
  A 0.79 0.78 -52.1 0 1 108.67 1253.58
  C 101.36 1244.04 88.38 1237.91 78.19 1247.68
  C 59.48 1265.62 90.53 1293.10 104.44 1270.39
  C 106.58 1266.90 104.88 1263.89 100.75 1264.05
  Z"
            />
            <path
              d="
  M 563.17 1269.19
  A 1.27 1.27 0.0 0 0 563.99 1268.00
  L 564.27 1240.71
  Q 564.29 1237.84 567.16 1237.62
  L 568.98 1237.48
  Q 571.78 1237.26 571.74 1240.07
  Q 571.47 1260.43 571.18 1280.88
  Q 571.18 1281.28 570.59 1282.30
  C 568.83 1285.37 564.77 1284.82 563.07 1282.18
  Q 553.35 1267.10 543.82 1252.39
  A 1.53 1.53 0.0 0 0 541.00 1253.22
  L 541.04 1281.73
  Q 541.05 1284.73 538.07 1284.38
  L 536.17 1284.15
  Q 533.23 1283.81 533.23 1280.85
  Q 533.23 1261.62 533.22 1241.26
  C 533.22 1238.17 535.81 1236.07 538.71 1237.09
  Q 540.25 1237.63 541.85 1239.97
  Q 551.61 1254.31 561.43 1268.60
  Q 562.11 1269.60 563.17 1269.19
  Z"
            />
            <path
              d="
  M 1109.43 1267.07
  C 1116.45 1281.15 1085.43 1293.40 1078.46 1275.22
  Q 1077.76 1273.40 1078.71 1272.36
  A 1.84 1.82 37.9 0 1 1081.07 1272.08
  C 1085.08 1274.73 1090.02 1278.47 1094.36 1279.05
  C 1102.86 1280.20 1108.74 1268.43 1098.29 1265.31
  C 1090.42 1262.96 1074.00 1257.79 1079.16 1245.71
  C 1084.36 1233.53 1097.58 1235.77 1106.40 1241.60
  Q 1109.04 1243.34 1109.03 1246.50
  L 1109.03 1248.24
  A 1.49 1.49 0.0 0 1 1106.79 1249.52
  C 1102.91 1247.25 1097.14 1242.43 1093.23 1241.76
  C 1085.69 1240.46 1080.40 1252.25 1089.35 1255.70
  C 1096.37 1258.40 1105.34 1258.84 1109.43 1267.07
  Z"
            />
            <path
              d="
  M 1317.1366 1284.5129
  A 23.88 23.40 91.4 0 1 1294.3270 1260.0683
  A 23.88 23.40 91.4 0 1 1318.3034 1236.7671
  A 23.88 23.40 91.4 0 1 1341.1130 1261.2117
  A 23.88 23.40 91.4 0 1 1317.1366 1284.5129
  Z
  M 1316.9870 1278.9598
  A 18.49 16.97 91.9 0 0 1334.5607 1261.0426
  A 18.49 16.97 91.9 0 0 1318.2130 1242.0002
  A 18.49 16.97 91.9 0 0 1300.6393 1259.9174
  A 18.49 16.97 91.9 0 0 1316.9870 1278.9598
  Z"
            />
            <path
              d="
  M 170.41 1281.90
  C 175.27 1268.38 180.09 1254.60 185.35 1241.00
  C 187.68 1235.00 193.04 1236.02 195.14 1241.49
  Q 202.62 1260.87 210.17 1280.43
  A 2.36 2.36 0.0 0 1 208.72 1283.53
  L 208.16 1283.72
  Q 204.96 1284.80 203.50 1281.76
  Q 196.72 1267.75 181.83 1274.07
  Q 181.44 1274.24 181.20 1274.60
  Q 178.05 1279.31 175.00 1284.06
  Q 173.93 1285.73 172.10 1285.20
  A 2.55 2.54 18.0 0 1 170.41 1281.90
  Z
  M 183.79 1264.74
  A 2.38 2.38 0.0 0 0 185.98 1267.85
  L 193.85 1268.10
  A 2.38 2.38 0.0 0 0 196.23 1265.13
  L 192.72 1251.50
  A 2.38 2.38 0.0 0 0 188.15 1251.36
  L 183.79 1264.74
  Z"
            />
            <path
              d="
  M 414.50 1267.79
  A 2.02 1.98 65.4 0 0 414.10 1268.90
  L 413.60 1281.11
  A 2.48 2.47 0.7 0 1 411.15 1283.49
  L 410.27 1283.51
  A 3.24 3.24 0.0 0 1 406.99 1280.27
  L 407.04 1242.25
  Q 407.05 1239.08 410.16 1238.53
  L 410.59 1238.45
  Q 413.66 1237.90 413.51 1241.01
  L 412.96 1252.93
  A 2.31 2.31 0.0 0 0 416.97 1254.60
  L 431.17 1239.11
  Q 433.14 1236.97 436.05 1237.10
  L 438.05 1237.19
  Q 441.10 1237.33 439.00 1239.55
  L 420.42 1259.16
  A 2.24 2.24 0.0 0 0 420.43 1262.25
  L 438.99 1281.70
  Q 440.37 1283.14 438.56 1283.98
  L 437.20 1284.62
  A 2.78 2.78 0.0 0 1 434.02 1284.03
  Q 426.04 1275.78 418.04 1267.64
  C 416.93 1266.51 415.48 1266.48 414.50 1267.79
  Z"
            />
            <path
              d="
  M 785.32 1274.47
  C 795.02 1283.27 805.98 1275.58 814.05 1269.43
  Q 814.46 1269.12 814.97 1269.15
  C 816.86 1269.23 817.20 1270.71 816.46 1272.23
  C 810.50 1284.59 795.98 1288.23 784.58 1281.24
  C 772.10 1273.58 769.61 1257.82 777.68 1245.69
  C 785.00 1234.68 800.80 1235.62 811.49 1241.35
  C 815.34 1243.41 815.88 1247.71 816.91 1251.44
  A 1.08 1.08 0.0 0 1 815.12 1252.50
  C 809.67 1247.27 800.37 1241.70 792.96 1242.38
  C 778.17 1243.72 775.84 1265.87 785.32 1274.47
  Z"
            />
            <path
              d="
  M 832.30 1263.99
  L 832.82 1282.35
  A 1.30 1.30 0.0 0 1 831.62 1283.68
  L 827.19 1284.03
  A 1.30 1.30 0.0 0 1 825.78 1282.75
  L 825.23 1239.23
  A 1.30 1.30 0.0 0 1 826.61 1237.92
  L 831.50 1238.22
  A 1.30 1.30 0.0 0 1 832.72 1239.61
  L 831.55 1256.06
  A 1.30 1.30 0.0 0 0 832.83 1257.45
  L 854.02 1257.62
  A 1.30 1.30 0.0 0 0 855.33 1256.35
  L 855.77 1238.27
  A 1.30 1.30 0.0 0 1 857.07 1237.00
  L 860.86 1237.00
  A 1.30 1.30 0.0 0 1 862.16 1238.30
  L 862.33 1283.73
  A 1.30 1.30 0.0 0 1 860.34 1284.84
  L 856.20 1282.24
  A 1.30 1.30 0.0 0 1 855.59 1281.14
  L 855.57 1264.38
  A 1.30 1.30 0.0 0 0 854.30 1263.08
  L 833.62 1262.66
  A 1.30 1.30 0.0 0 0 832.30 1263.99
  Z"
            />
            <path
              d="
  M 1162.55 1260.64
  A 23.59 23.59 0.0 0 1 1138.96 1284.23
  A 23.59 23.59 0.0 0 1 1115.37 1260.64
  A 23.59 23.59 0.0 0 1 1138.96 1237.05
  A 23.59 23.59 0.0 0 1 1162.55 1260.64
  Z
  M 1140.7875 1279.0841
  A 18.65 17.26 84.5 0 0 1156.1805 1258.8657
  A 18.65 17.26 84.5 0 0 1137.2125 1241.9559
  A 18.65 17.26 84.5 0 0 1121.8195 1262.1743
  A 18.65 17.26 84.5 0 0 1140.7875 1279.0841
  Z"
            />
            <path
              d="
  M 4.19 1242.21
  A 4.66 4.66 0.0 0 1 8.75 1237.46
  L 20.46 1237.24
  A 23.85 22.54 -1.1 0 1 44.74 1259.31
  L 44.77 1260.91
  A 23.85 22.54 -1.1 0 1 21.36 1283.91
  L 9.65 1284.13
  A 4.66 4.66 0.0 0 1 4.90 1279.56
  L 4.19 1242.21
  Z
  M 10.94 1247.92
  L 11.12 1272.94
  A 6.11 6.11 0.0 0 0 17.27 1279.01
  L 19.56 1278.99
  A 18.08 17.89 -0.4 0 0 37.51 1260.98
  L 37.50 1259.52
  A 18.08 17.89 -0.4 0 0 19.30 1241.75
  L 17.01 1241.77
  A 6.11 6.11 0.0 0 0 10.94 1247.92
  Z"
            />
            <path
              d="
  M 152.99 1243.39
  L 153.05 1283.35
  A 0.45 0.45 0.0 0 1 152.63 1283.80
  L 146.90 1284.24
  A 0.45 0.45 0.0 0 1 146.42 1283.79
  L 146.82 1244.54
  A 0.45 0.45 0.0 0 0 146.51 1244.11
  L 133.79 1239.87
  A 0.45 0.45 0.0 0 1 133.49 1239.37
  L 133.66 1238.32
  A 0.45 0.45 0.0 0 1 134.09 1237.94
  L 165.05 1237.28
  A 0.45 0.45 0.0 0 1 165.51 1237.73
  L 165.51 1241.17
  A 0.45 0.45 0.0 0 1 165.11 1241.62
  L 153.39 1242.94
  A 0.45 0.45 0.0 0 0 152.99 1243.39
  Z"
            />
            <path
              d="
  M 288.40 1272.63
  Q 288.86 1272.57 289.26 1271.73
  Q 297.03 1255.63 304.76 1239.51
  C 306.10 1236.70 310.01 1236.28 311.45 1239.10
  Q 311.95 1240.08 312.01 1242.48
  Q 312.54 1261.99 313.05 1281.50
  C 313.15 1285.00 307.45 1285.98 306.25 1282.26
  Q 302.90 1271.82 307.04 1260.77
  Q 307.73 1258.91 306.26 1257.57
  L 305.47 1256.85
  Q 303.92 1255.45 303.07 1257.36
  Q 297.82 1269.32 292.71 1281.18
  C 291.09 1284.93 286.72 1284.58 285.05 1280.99
  Q 279.58 1269.20 274.17 1257.41
  A 1.51 1.50 -9.4 0 0 272.93 1256.53
  Q 271.44 1256.39 271.45 1258.00
  Q 271.52 1270.04 271.61 1282.30
  Q 271.63 1285.29 268.75 1284.47
  L 266.96 1283.96
  Q 264.11 1283.15 264.13 1280.18
  Q 264.23 1261.16 264.45 1241.76
  C 264.50 1237.48 270.72 1236.45 272.58 1240.48
  Q 279.74 1256.00 287.16 1272.01
  A 1.23 1.10 -15.2 0 0 288.40 1272.63
  Z"
            />
            <path
              d="
  M 377.25 1263.27
  Q 375.57 1263.43 375.36 1265.20
  Q 374.39 1273.36 373.51 1280.82
  Q 373.20 1283.50 370.51 1283.72
  L 369.48 1283.80
  Q 366.70 1284.02 366.72 1281.23
  L 366.98 1240.52
  A 2.32 2.32 0.0 0 1 368.78 1238.27
  C 377.61 1236.26 397.17 1236.15 399.37 1249.06
  C 400.43 1255.33 395.93 1260.66 390.72 1263.74
  C 389.18 1264.65 389.21 1266.51 390.13 1267.99
  Q 394.58 1275.11 398.34 1281.47
  Q 400.11 1284.46 396.64 1284.17
  L 394.82 1284.02
  Q 391.35 1283.74 389.61 1280.73
  Q 384.79 1272.46 383.13 1269.13
  C 382.17 1267.19 379.75 1263.04 377.25 1263.27
  Z
  M 385.63 1242.57
  A 5.39 5.39 0.0 0 0 381.91 1241.37
  L 378.76 1241.56
  A 5.39 5.39 0.0 0 0 373.72 1247.51
  L 374.72 1256.83
  A 5.39 5.39 0.0 0 0 382.59 1261.03
  L 390.98 1256.60
  A 5.39 5.39 0.0 0 0 391.87 1247.66
  L 385.63 1242.57
  Z"
            />
            <path
              d="
  M 623.09 1269.07
  C 615.04 1286.99 593.88 1290.29 581.75 1273.83
  C 571.37 1259.73 579.78 1243.59 594.68 1238.57
  Q 608.60 1233.87 620.41 1245.01
  Q 622.50 1246.99 622.50 1249.87
  L 622.50 1251.94
  Q 622.50 1254.81 620.39 1252.87
  C 612.59 1245.69 600.55 1237.02 590.92 1246.38
  C 570.36 1266.38 603.17 1292.35 615.73 1270.74
  C 617.89 1267.02 616.74 1264.38 612.40 1264.12
  Q 607.14 1263.80 601.88 1263.37
  A 2.15 2.15 0.0 0 1 599.91 1261.39
  L 599.88 1260.95
  A 2.57 2.57 0.0 0 1 602.40 1258.19
  Q 611.75 1258.05 619.50 1258.14
  C 626.87 1258.22 625.11 1264.59 623.09 1269.07
  Z"
            />
            <path
              d="
  M 720.85 1244.97
  A 1.00 0.96 55.2 0 0 720.80 1245.28
  L 721.06 1281.34
  Q 721.07 1283.76 718.66 1283.75
  L 717.15 1283.75
  Q 714.31 1283.74 714.29 1280.90
  L 714.00 1245.06
  A 2.50 2.50 0.0 0 0 712.07 1242.64
  L 702.26 1240.38
  A 1.07 1.06 -39.9 0 1 702.45 1238.28
  Q 713.06 1237.74 724.07 1237.31
  C 726.93 1237.20 733.31 1237.15 735.00 1239.18
  A 0.62 0.61 63.6 0 1 734.67 1240.18
  Q 729.10 1241.47 723.49 1242.60
  Q 721.41 1243.02 720.85 1244.97
  Z"
            />
            <path
              d="
  M 900.99 1268.64
  Q 902.71 1268.64 902.69 1266.74
  Q 902.52 1253.93 902.49 1241.37
  Q 902.49 1238.04 905.78 1237.58
  L 907.04 1237.41
  Q 910.06 1236.99 910.04 1240.04
  L 909.74 1282.21
  A 2.70 2.69 -19.9 0 1 908.78 1284.25
  Q 905.62 1286.93 903.22 1283.35
  Q 892.51 1267.40 881.93 1251.36
  A 0.84 0.84 0.0 0 0 881.09 1250.99
  Q 880.93 1251.02 880.77 1251.02
  A 0.77 0.77 0.0 0 0 880.04 1251.71
  Q 878.47 1265.33 879.58 1278.95
  A 4.09 4.09 0.0 0 1 876.02 1283.34
  L 875.56 1283.40
  Q 871.75 1283.88 871.81 1280.03
  Q 872.10 1261.56 872.73 1243.19
  C 872.85 1239.96 876.31 1237.88 879.04 1239.22
  Q 880.40 1239.89 882.21 1242.52
  Q 891.05 1255.37 899.79 1268.02
  A 1.44 1.42 -17.3 0 0 900.99 1268.64
  Z"
            />
            <path
              d="
  M 949.88 1276.90
  Q 964.55 1281.53 974.03 1269.19
  A 1.23 1.21 -76.7 0 1 974.76 1268.73
  C 976.77 1268.33 977.75 1269.53 977.58 1271.46
  C 976.66 1281.89 963.55 1284.64 954.88 1284.24
  Q 945.04 1283.78 939.38 1275.86
  C 931.09 1264.24 931.24 1248.89 944.51 1241.08
  Q 959.42 1232.31 973.90 1243.40
  C 975.53 1244.64 977.30 1247.31 977.51 1249.15
  A 1.81 1.80 -71.3 0 1 974.46 1250.66
  C 956.59 1233.32 932.42 1246.53 943.74 1271.01
  C 945.33 1274.44 946.06 1275.69 949.88 1276.90
  Z"
            />
            <path
              d="
  M 1012.46 1273.34
  L 997.84 1272.39
  A 2.07 2.05 -72.4 0 0 995.95 1273.38
  Q 993.24 1277.85 990.54 1282.76
  C 988.86 1285.81 984.09 1284.80 985.30 1281.32
  Q 992.21 1261.41 999.35 1241.58
  C 1000.13 1239.41 1001.36 1237.88 1003.74 1237.51
  C 1007.20 1236.98 1008.71 1239.21 1009.86 1242.28
  Q 1017.20 1261.97 1024.31 1281.18
  A 2.27 2.26 71.5 0 1 1022.84 1284.14
  C 1021.42 1284.57 1020.37 1283.81 1019.59 1282.57
  Q 1016.73 1277.95 1013.29 1273.76
  A 1.17 1.15 -17.7 0 0 1012.46 1273.34
  Z
  M 1000.82 1268.11
  L 1008.03 1268.27
  A 2.11 2.11 0.0 0 0 1010.19 1266.21
  L 1010.20 1265.64
  A 18.00 5.50 -88.7 0 0 1005.11 1247.52
  L 1004.67 1247.51
  A 18.00 5.50 -88.7 0 0 998.77 1265.38
  L 998.75 1265.95
  A 2.11 2.11 0.0 0 0 1000.82 1268.11
  Z"
            />
            <path
              d="
  M 1412.07 1278.94
  C 1418.51 1279.19 1425.84 1269.56 1415.77 1266.19
  Q 1408.45 1263.75 1401.83 1259.83
  C 1396.56 1256.71 1393.26 1252.83 1395.34 1246.81
  C 1399.68 1234.20 1416.61 1236.38 1425.25 1241.78
  A 3.03 3.03 0.0 0 1 1426.23 1245.93
  L 1425.85 1246.56
  A 4.15 4.14 28.9 0 1 1420.46 1248.11
  Q 1416.74 1246.25 1414.16 1242.90
  Q 1413.95 1242.63 1413.63 1242.50
  Q 1404.93 1239.07 1402.11 1247.15
  C 1400.67 1251.26 1403.50 1253.89 1407.18 1255.51
  Q 1415.59 1259.23 1424.06 1262.78
  C 1427.50 1264.22 1427.32 1268.50 1426.76 1271.96
  C 1423.93 1289.38 1404.24 1286.36 1395.09 1276.21
  C 1392.93 1273.82 1395.36 1270.54 1398.00 1272.01
  C 1402.15 1274.34 1407.88 1278.77 1412.07 1278.94
  Z"
            />
            <path
              d="
  M 453.86 1264.41
  L 453.42 1275.67
  A 1.99 1.99 0.0 0 0 455.17 1277.72
  L 472.00 1279.74
  A 1.75 1.74 -0.2 0 1 473.53 1281.25
  L 473.58 1281.72
  A 2.06 2.06 0.0 0 1 471.52 1284.04
  L 449.99 1283.84
  A 2.13 2.13 0.0 0 1 447.88 1281.75
  L 447.02 1240.03
  A 2.21 2.21 0.0 0 1 449.23 1237.77
  L 509.21 1237.71
  Q 511.22 1237.71 511.25 1239.71
  L 511.26 1240.10
  A 1.81 1.81 0.0 0 1 509.69 1241.92
  L 500.03 1243.21
  A 2.54 2.54 0.0 0 0 497.82 1245.72
  L 497.69 1281.52
  Q 497.68 1283.71 495.48 1283.63
  L 494.24 1283.58
  A 2.37 2.36 0.9 0 1 491.96 1281.24
  L 491.69 1245.37
  A 2.42 2.41 6.4 0 0 489.81 1243.03
  L 476.82 1240.04
  A 1.49 1.48 -51.6 0 0 475.82 1240.16
  Q 468.43 1243.83 460.75 1241.63
  C 454.15 1239.74 453.73 1244.29 453.25 1249.24
  C 452.71 1254.96 452.35 1257.78 459.23 1257.72
  Q 463.17 1257.69 466.72 1257.64
  Q 469.36 1257.60 469.38 1260.25
  L 469.39 1260.76
  Q 469.41 1263.43 466.75 1263.22
  L 456.09 1262.42
  A 2.07 2.07 0.0 0 0 453.86 1264.41
  Z"
            />
            <path
              d="
  M 748.89 1262.08
  C 743.30 1262.98 741.38 1270.62 744.68 1274.60
  C 748.38 1279.05 757.19 1279.40 762.52 1278.53
  Q 764.85 1278.14 765.51 1280.41
  L 765.72 1281.12
  Q 766.54 1283.92 763.63 1283.93
  L 743.36 1284.03
  A 2.44 2.44 0.0 0 1 740.91 1281.61
  L 740.46 1239.76
  A 2.03 2.03 0.0 0 1 742.49 1237.71
  L 763.45 1237.67
  Q 765.74 1237.67 765.53 1239.95
  L 765.42 1241.16
  Q 765.20 1243.53 762.84 1243.22
  L 751.53 1241.71
  A 4.23 4.22 1.4 0 0 746.76 1246.24
  Q 747.06 1249.85 747.42 1253.84
  C 747.76 1257.52 749.31 1258.91 752.92 1257.86
  C 756.05 1256.95 763.23 1257.06 765.12 1260.40
  A 1.75 1.75 0.0 0 1 763.96 1262.98
  Q 759.19 1263.97 754.48 1262.85
  Q 750.29 1261.85 748.89 1262.08
  Z"
            />
            <path
              d="
  M 1213.91 1279.17
  C 1219.52 1279.92 1226.07 1277.46 1228.19 1271.89
  Q 1229.08 1269.54 1228.92 1264.52
  Q 1228.53 1252.83 1228.07 1240.72
  Q 1227.94 1237.43 1231.20 1237.92
  L 1231.73 1238.00
  Q 1234.99 1238.49 1234.82 1241.77
  Q 1234.16 1255.31 1233.62 1267.98
  C 1233.15 1279.13 1225.65 1284.66 1214.83 1284.04
  C 1208.20 1283.66 1202.54 1280.86 1200.07 1274.47
  Q 1198.82 1271.25 1198.91 1263.14
  Q 1199.03 1251.66 1198.98 1239.98
  A 2.27 2.27 0.0 0 1 1201.02 1237.71
  L 1201.73 1237.63
  Q 1204.97 1237.30 1205.01 1240.55
  Q 1205.20 1255.14 1205.40 1269.49
  C 1205.47 1275.18 1208.23 1278.41 1213.91 1279.17
  Z"
            />
            <path
              d="
  M 1376.88 1269.12
  A 0.76 0.70 4.7 0 0 1377.74 1268.45
  L 1378.65 1240.85
  Q 1378.75 1237.58 1382.03 1237.48
  L 1382.82 1237.46
  A 2.53 2.53 0.0 0 1 1385.43 1240.02
  Q 1385.15 1260.79 1384.93 1282.00
  C 1384.89 1285.43 1381.10 1286.35 1379.17 1283.54
  Q 1368.55 1268.08 1357.92 1252.50
  A 1.52 1.49 -8.7 0 0 1357.06 1251.88
  Q 1356.04 1251.61 1355.57 1252.42
  Q 1355.35 1252.81 1355.32 1253.61
  Q 1354.86 1267.61 1354.51 1281.11
  Q 1354.44 1283.74 1351.85 1283.29
  L 1350.13 1283.00
  Q 1347.32 1282.51 1347.34 1279.66
  Q 1347.52 1260.62 1347.73 1241.76
  C 1347.74 1240.35 1348.92 1238.76 1350.29 1238.23
  Q 1353.69 1236.92 1356.22 1240.50
  Q 1366.22 1254.62 1376.36 1268.65
  Q 1376.69 1269.10 1376.88 1269.12
  Z"
            />
            <path
              d="
  M 226.72 1277.74
  L 240.15 1278.80
  Q 242.56 1278.99 242.38 1281.40
  L 242.34 1281.83
  A 2.16 2.15 2.3 0 1 240.18 1283.82
  L 219.84 1283.70
  A 2.91 2.91 0.0 0 1 216.95 1280.72
  L 217.81 1241.27
  Q 217.89 1237.68 221.48 1237.69
  L 222.07 1237.70
  A 2.87 2.87 0.0 0 1 224.94 1240.57
  L 224.86 1275.72
  A 2.03 2.01 -87.9 0 0 226.72 1277.74
  Z"
            />
            <path
              d="
  M 1260.41 1245.53
  L 1261.05 1280.77
  A 2.74 2.73 85.2 0 1 1258.73 1283.52
  L 1258.00 1283.63
  Q 1254.93 1284.10 1254.84 1281.00
  L 1253.82 1246.24
  A 3.14 3.13 7.9 0 0 1251.63 1243.35
  L 1243.08 1240.65
  A 1.07 1.06 -70.7 0 1 1242.41 1239.25
  L 1242.84 1238.17
  A 0.65 0.64 -79.3 0 1 1243.44 1237.75
  L 1271.73 1237.75
  A 1.41 1.41 0.0 0 1 1273.09 1238.78
  Q 1273.50 1240.24 1271.97 1240.73
  Q 1266.62 1242.45 1261.41 1244.14
  A 1.45 1.43 -9.6 0 0 1260.41 1245.53
  Z"
            />
            <rect
              x="-4.01"
              y="-22.86"
              transform="translate(55.64,1260.90) rotate(0.8)"
              width="8.02"
              height="45.72"
              rx="3.30"
            />
            <rect
              x="-3.37"
              y="-22.79"
              transform="translate(123.76,1260.93) rotate(0.9)"
              width="6.74"
              height="45.58"
              rx="2.59"
            />
            <rect
              x="-3.65"
              y="-22.98"
              transform="translate(521.32,1261.15) rotate(-1.1)"
              width="7.30"
              height="45.96"
              rx="1.80"
            />
            <rect
              x="919.01"
              y="1238.09"
              width="7.00"
              height="45.64"
              rx="3.43"
            />
            <path
              d="
  M 1054.16 1283.57
  C 1047.72 1283.72 1041.12 1283.67 1034.75 1283.57
  A 2.33 2.33 0.0 0 1 1032.45 1281.22
  L 1032.72 1240.74
  Q 1032.75 1237.33 1036.09 1238.01
  L 1036.35 1238.06
  Q 1039.62 1238.72 1039.53 1242.05
  Q 1039.13 1257.21 1038.91 1272.28
  C 1038.83 1277.50 1040.87 1280.26 1046.23 1279.06
  Q 1050.68 1278.06 1055.08 1279.92
  A 1.88 1.88 0.0 0 1 1056.19 1281.23
  C 1056.55 1282.74 1055.62 1283.54 1054.16 1283.57
  Z"
            />
            <path
              d="
  M 1191.14 1278.91
  L 1193.52 1281.93
  A 1.22 1.22 0.0 0 1 1192.54 1283.91
  L 1170.53 1283.52
  A 1.22 1.22 0.0 0 1 1169.33 1282.28
  L 1170.20 1239.14
  A 1.22 1.22 0.0 0 1 1171.50 1237.95
  L 1175.31 1238.18
  A 1.22 1.22 0.0 0 1 1176.45 1239.40
  L 1176.54 1277.68
  A 1.22 1.22 0.0 0 0 1177.80 1278.89
  L 1190.14 1278.44
  A 1.22 1.22 0.0 0 1 1191.14 1278.91
  Z"
            />
            <rect
              x="-3.73"
              y="-22.36"
              transform="translate(1283.64,1260.73) rotate(-0.8)"
              width="7.46"
              height="44.72"
              rx="2.47"
            />
            <rect
              x="-13.05"
              y="-2.71"
              transform="translate(661.71,1259.29) rotate(0.6)"
              width="26.10"
              height="5.42"
              rx="2.54"
            />
          </svg>
